<mxfile host="app.diagrams.net" modified="2023-09-03T03:31:39.298Z" agent="Mozilla/5.0 (X11; Linux x86_64) AppleWebKit/537.36 (KHTML, like Gecko) Chrome/116.0.0.0 Safari/537.36" etag="2JYMLSkSFSqbbnTuqhIj" version="21.6.9" type="device">
  <diagram id="-NTbiAI7OXHFERFkKQ-l" name="Page-1">
    <mxGraphModel dx="868" dy="485" grid="1" gridSize="10" guides="1" tooltips="1" connect="1" arrows="1" fold="1" page="1" pageScale="1" pageWidth="827" pageHeight="1169" math="0" shadow="0">
      <root>
        <mxCell id="0" />
        <mxCell id="1" parent="0" />
        <mxCell id="RFO-IRlkSK7CdZD_XVRj-1" value="&lt;br&gt;&lt;br&gt;&lt;br&gt;&lt;br&gt;&lt;br&gt;&lt;br&gt;&lt;br&gt;&lt;br&gt;&lt;br&gt;&lt;br&gt;&lt;br&gt;&lt;br&gt;&lt;br&gt;" style="rounded=1;whiteSpace=wrap;html=1;" parent="1" vertex="1">
          <mxGeometry x="160" y="100" width="550" height="260" as="geometry" />
        </mxCell>
        <mxCell id="RFO-IRlkSK7CdZD_XVRj-2" value="&lt;font style=&quot;font-size: 14px&quot;&gt;&lt;b&gt;End User&lt;/b&gt;&lt;/font&gt;" style="outlineConnect=0;dashed=0;verticalLabelPosition=bottom;verticalAlign=top;align=center;html=1;shape=mxgraph.aws3.user;fillColor=#D2D3D3;gradientColor=none;fontSize=20;" parent="1" vertex="1">
          <mxGeometry x="80" y="194.5" width="45" height="63" as="geometry" />
        </mxCell>
        <mxCell id="RFO-IRlkSK7CdZD_XVRj-3" value="&lt;b style=&quot;font-size: 14px&quot;&gt;Kemampuan&lt;br&gt;Dasar&lt;/b&gt;" style="shadow=0;dashed=0;html=1;strokeColor=none;fillColor=#4495D1;labelPosition=center;verticalLabelPosition=bottom;verticalAlign=top;align=center;outlineConnect=0;shape=mxgraph.veeam.windows_linux_server;fontSize=20;" parent="1" vertex="1">
          <mxGeometry x="210" y="190" width="76" height="72" as="geometry" />
        </mxCell>
        <mxCell id="RFO-IRlkSK7CdZD_XVRj-4" value="&lt;font style=&quot;font-size: 14px&quot;&gt;&lt;b&gt;Python &lt;br&gt;Programming&lt;/b&gt;&lt;/font&gt;" style="shape=image;html=1;verticalAlign=top;verticalLabelPosition=bottom;labelBackgroundColor=#ffffff;imageAspect=0;aspect=fixed;image=https://cdn4.iconfinder.com/data/icons/logos-and-brands/512/267_Python_logo-128.png;fontSize=20;" parent="1" vertex="1">
          <mxGeometry x="364" y="180.5" width="99" height="99" as="geometry" />
        </mxCell>
        <mxCell id="RFO-IRlkSK7CdZD_XVRj-6" value="" style="shape=flexArrow;endArrow=classic;html=1;rounded=0;fontSize=20;strokeWidth=2;fillColor=#009E9E;" parent="1" edge="1">
          <mxGeometry width="50" height="50" relative="1" as="geometry">
            <mxPoint x="150" y="225.5" as="sourcePoint" />
            <mxPoint x="200" y="226" as="targetPoint" />
          </mxGeometry>
        </mxCell>
        <mxCell id="RFO-IRlkSK7CdZD_XVRj-7" value="" style="shape=flexArrow;endArrow=classic;html=1;rounded=0;fontSize=20;strokeWidth=2;fillColor=#009E9E;" parent="1" edge="1">
          <mxGeometry width="50" height="50" relative="1" as="geometry">
            <mxPoint x="300" y="225.5" as="sourcePoint" />
            <mxPoint x="360" y="226" as="targetPoint" />
          </mxGeometry>
        </mxCell>
        <mxCell id="RFO-IRlkSK7CdZD_XVRj-8" value="" style="shape=flexArrow;endArrow=classic;html=1;rounded=0;fontSize=20;strokeWidth=2;fillColor=#009E9E;" parent="1" edge="1">
          <mxGeometry width="50" height="50" relative="1" as="geometry">
            <mxPoint x="690" y="226" as="sourcePoint" />
            <mxPoint x="744" y="225.5" as="targetPoint" />
          </mxGeometry>
        </mxCell>
        <mxCell id="8s-rB7mAuBpaN1bvlLKw-1" value="AI -&amp;nbsp;Machine Learning&lt;br&gt;Developer" style="sketch=0;points=[[0,0,0],[0.25,0,0],[0.5,0,0],[0.75,0,0],[1,0,0],[0,1,0],[0.25,1,0],[0.5,1,0],[0.75,1,0],[1,1,0],[0,0.25,0],[0,0.5,0],[0,0.75,0],[1,0.25,0],[1,0.5,0],[1,0.75,0]];outlineConnect=0;fontColor=#232F3E;gradientColor=#4AB29A;gradientDirection=north;fillColor=#116D5B;strokeColor=#ffffff;dashed=0;verticalLabelPosition=bottom;verticalAlign=top;align=center;html=1;fontSize=12;fontStyle=0;aspect=fixed;shape=mxgraph.aws4.resourceIcon;resIcon=mxgraph.aws4.augmented_ai;" parent="1" vertex="1">
          <mxGeometry x="749" y="190" width="78" height="78" as="geometry" />
        </mxCell>
        <mxCell id="8s-rB7mAuBpaN1bvlLKw-2" value="&lt;font style=&quot;font-size: 14px&quot;&gt;&lt;b&gt;Matematika dan&lt;br&gt;Statistika&lt;/b&gt;&lt;/font&gt;" style="shape=image;html=1;verticalAlign=top;verticalLabelPosition=bottom;labelBackgroundColor=#ffffff;imageAspect=0;aspect=fixed;image=https://cdn2.iconfinder.com/data/icons/circle-icons-1/64/calculator-128.png" parent="1" vertex="1">
          <mxGeometry x="560" y="380" width="110" height="110" as="geometry" />
        </mxCell>
        <mxCell id="8s-rB7mAuBpaN1bvlLKw-8" value="" style="group" parent="1" vertex="1" connectable="0">
          <mxGeometry x="530" y="171.1" width="150" height="117.80000000000001" as="geometry" />
        </mxCell>
        <mxCell id="8s-rB7mAuBpaN1bvlLKw-7" value="" style="rounded=1;whiteSpace=wrap;html=1;fontSize=14;strokeWidth=2;shadow=1;" parent="8s-rB7mAuBpaN1bvlLKw-8" vertex="1">
          <mxGeometry width="150" height="117.8" as="geometry" />
        </mxCell>
        <mxCell id="8s-rB7mAuBpaN1bvlLKw-3" value="" style="shape=image;verticalLabelPosition=bottom;labelBackgroundColor=#ffffff;verticalAlign=top;aspect=fixed;imageAspect=0;image=https://scipy.org/images/logo.svg;" parent="8s-rB7mAuBpaN1bvlLKw-8" vertex="1">
          <mxGeometry x="16" y="47.80000000000001" width="70" height="70" as="geometry" />
        </mxCell>
        <mxCell id="8s-rB7mAuBpaN1bvlLKw-4" value="" style="shape=image;verticalLabelPosition=bottom;labelBackgroundColor=#ffffff;verticalAlign=top;aspect=fixed;imageAspect=0;image=data:image/png,iVBORw0KGgoAAAANSUhEUgAAANkAAADoCAMAAABVRrFMAAAA/FBMVEX////lWy3tjiT4vzzlWS3tkCPjTQ/64tzpdjXsiQ71yKLshQDtkSPsiAXqeiz99OvmZTX417zsijP5wkD4uyX4wUH4vTLjSQD5xDz4vCzsiiLkVCv3vUHvmDDukiv++vLxoTb1tD/74Kv73aLkViT5ymb97tL5xVX61o/604X85bv+9OLypjnshzzlWzHvlj/96cb6z3jxnkDobjfzrTzsgzzmYTP87N/1xZvyr3LxqWb53sj87+zvnk70wbX85r75zG7ocSjxrn/odFbwp5Xrh2z42dLnaULytqjtloDodVP2zMHsii/rhWr53tjzuYbvm1vobxfwqpnzvKEq2mDgAAAJkElEQVR4nO2de1/bNhSGnVshS0IpubRxwq2l0AIFWijdhd637gJbt+77f5fJjpNYsiRL50iRvJ/ef0uCn6LXPq+kI0eRM10cvXf3yy3q5GjQGBwdur4M49p9Phg1iAYvd11filk9HqdcRKPBE9cXY1AXw3FjqXHj/2K3k6eDBq3B0YnrizKhZ4NRg9Vo8LzydlsajGV77PrSUDqkDEZrPLxwfXlg3f/AGoyx29OK2o1nMHZIPnN9kQAdj8QDMcc2rprdDo/kAzFvtyoVXLsvVbkSDT7cd33BqnpSajBmSFbEbu8bKgajNR4du77sUp0oG4yW7/lmnlVAbD7nG1EppSZ/882FpJRS07jhY8FVzCoQeVhwlZdSavIt3xyjDMay+VNwybIKRL7km92SrAKRF3YzZTBa7guu45ENrpTNab6BllJqGjsruPSyCkSO8o1uVoHIhd0uAFkFxLbifGOmlFLTKieUMVkFxLaqfIPLKhCtJt/gswpE9vMNymD9/UfwD1suuFCl1HTv4yWCzWa+QRlseBrXNyaTF1MEm6WCC5VV+lf1uN7aaNYmZ+eP+uCvsZFvUFmlv78d1+spWa052bzyyW6oUmq6l3BlZAnbOspuJgsuVFYhBpuBzckSthdDH+yGyir9/Z2MK0dWI3Z7hbGbkXyDyir96faCiyIjf7ZLlN0+oJ8AGIP15wbjkCVsrzFPAGTBhcoq/auYAmPIErbzPoINkW9QpdSjnMEEZMRu168wQxKYb3BZhTKYkCyxG6qYhOQbTCnVT0qpojhkq7cbvpRSJZvZDf7L9PINMqsUDCYnS+x2upqCC5dVOAYrIyNsq8g32FJKxCUlW0HBdXhkwWAKZOiCayr/s+FKqX3xQFQgQ+Wb/mlHOp1sJKuAyeD5JrlpycjeYwzWP5UORDUymN1mZbeYzFhWQZHp221edovIDGYVJJlmvlmU3QIyk1kFS6ZTcOXKbi6Z2ayCJ1MtuKixwiEznVVMkKnkG6bsLpCZzypmyErzDVsVsGQWsoohMrndijdjmsxKVjFGJrEbZ6zkycq208u5dAwGJSNovHzDHSs5MuS6ijYXhIyoUHAJxsqCzF5WMUzGFFzCsjsjs5lVTJNRBZd4rKRkdrOKebJFvpGV3QmZ5awiI5vAyLJ8I71pEbJXlrOKWO1Pn+9B0ZIngPRXEzL4UgHkTk+RfRe9OzgAo21Jv5yQQecuVbOKlCyKfn4IZFMgA81d9ocIg+XJoptfHoJuJEpk+nOX4Dt9kSyKvvwKsZsimd7cpVZWKSeLQHZTJtOwG9pgBbIo+l3bbupk5GdV9mZoZxU1sujmz4f2yJJne5ndjBiMR0bsdq1lNy2y0rlL7BNMShZFv93TGJKaZPK5S0wppUKmZTdtMvHcpTmDicmitT9UhySAjL9UYNJgErIouq2psUHIUrvRTwB8KaVMFkXflIYkjCxh28rtzTBssBKypOAqZ4OSzeyW/cFQWQVAFkV/lRdccLL5UoHZO70imULBhSCbFVwog7XgZKX5BkWWZAA4Vr1191qKVkJWUnBJydo98t1SstpmF8y1sz5ZR5HJ842MrPNDsv5uh6zV3ThrNrFkxG7CgktM1nn7Jv2sFbLu1nWy+xlPJi64RGS9+oPskxbIWneXk2QGwAhZdPOZazc+Wbvz/eKDxsmIwZqzmQ0zZKTg4uUbLtnMYHbIWt3XZ/MZG1Nk3HzDIeucv8l/yCxZd2uzuZiKMkfGsVuBrN1+QH/EJFlrZ2YwC2SFfMOQtTtf2U+YI1sazAYZm29oss6Pxb0Exsi6L66ZKVHDZHS+yZP1zn/i/LQhsu7dZpOd6zVOls83S7K24IuMkBUGoiWyXL6Zk8VFg5kja+1snPHm5m2QLfJNRsYzmDGyWSm1MrIs36RkvR2ewQyRzUupFZKl+YaQpVnFFhnfYLbJ0nxzR5VSHMnnZeVk7TbfYPbJSMH195uSn7iRLhZLyTpfv0gnYqRkcXzVsH2YCbeULidLAt4amCzem/ZXcFijeKlASNZuJfUnlCzens4m2K2fHXQjSq4CsnnAg5HFO/uLhQP7h5kIlgr4ZIu7EoQsjk+pBZHR2PZhJre8uUseWS7gAciIwdjVEPtnB3GWCopkVMDTJou393krWAZ6a+UqLhWwZEzA0ySL61eChXD7h5mwSwUMGVt/6pHFp0M+V8pm/ewgeu6SIutts/WnDhm504u50iFp/eyg/FJBjowX8NTJ8nd6MZvts4NySwVLMm7AUyUTG2zVdlssFczJOm+5AU+RLN4bqm5Zs392UFZwzciEAU+JbFFKqcn+YY1pwZWQSQKeAhkxmObuSftno659vtckZLKAV0pGsgqgDdX+YY23Zwe9t7KAV0ZW39MaiEvZPxv12wPpP5eRIY4gGDx1elyvnKzY6qGhaVf+n+qWDN7KPjyNO16TAVvZ0z0oPc/JAGcHZZu8vCfTPcxk0dtbATKthoBlb28lyJTPDsrvl68ImdrZQdQmr6qQlduN3S9fHbISuxW281aJTNBbm3IVd1FWiqwmKrh4uyirRsYruPj75StHVii4RPvlK0hGNQSIe3urSJbrv5Hsl68mWWY36X75qpKldpPul68uWa35UbpAX2WyjUAWyAJZIAtkgSyQBbJAFsgCWSDzi0y8LbziZM3LTRmanKy3U7a32yXZeq6BUI+spMnAPVlL1qkgIStrMvCATNZdIiTrSPegeEMm7ggSkC0bol1Kba9c2hCvSJZviHYp1f2NXLvxyNwbLJP6ntRWsVuySMY0RLuUzj7iQocrS1ZoiHYprb3fZEhSdqPJfDFYJs39+nQnOUUm6dd0Iu0ei3xzco6M3xDtUvp9MbkTGxZkooZol4L0Mi2eAHMyYUO0S8H6z7KCa0Ym2C/vWtCeweSwjZRM2hDtUuA+z6Tgmmw4zypiwTtYE7v940spxRGCjNwSvXo0M8KReTsUo0AWyHxSIAtk/iiQBTJ/FMgCmT8KZIHMHwWyQOaPAlkg80eBLJD5o0AWyPxRIAtk/iiQBTJ/tCZ9K1QJWcdnMvmLyqRkbbe71hUkeVGZhEz8JgOfJHxRmZjM0407BYleVCYi83bjDkdfNnl245N5vHGHK95x71yyShiMVvG4dw6ZD00G+iq8XaFA5keTAUTM2xUYMs/2QGuKshtN5k2TAVD5tyvkyappMFrLtyssybxqMkDotnZAkVXbYLRmb1fIyHxrMsApfbtCSuZfkwFWJN8QsqqVUmp6d/CxgqWUmv51abD/AMn5mcVcH3wcAAAAAElFTkSuQmCC;" parent="8s-rB7mAuBpaN1bvlLKw-8" vertex="1">
          <mxGeometry x="86" y="47.80000000000001" width="57.99" height="62" as="geometry" />
        </mxCell>
        <mxCell id="8s-rB7mAuBpaN1bvlLKw-5" value="" style="shape=image;verticalLabelPosition=bottom;labelBackgroundColor=#ffffff;verticalAlign=top;aspect=fixed;imageAspect=0;image=data:image/png,iVBORw0KGgoAAAANSUhEUgAAAaEAAAB5CAMAAACnbG4GAAAAwFBMVEX////QAAAvLy//+vrRBQX97+/SDAwsLCwYGBgjIyMzMzP55+ceHh4mJibQ0NCJiYnfb2/g4ODGxsZzc3MTExPq6uo7OzuoqKj4+Pjv7++xsbHVMjJmZmazs7NUVFRhYWGBgYFPT0/xwcGbm5tGRkZsbGzpnZ2Xl5cAAADi4uLKysrV1dV6enqOjo5RUVHAwMDtr6/0zMzqoqLwvr7jgIDts7PUKCj22NjeZmbSGBjcXV3mkJDXPz/aUVHkh4fVLi5rJNwhAAAMlUlEQVR4nO2da2PithKGWXZbyVSGEsA2FDAUaBIuy/bsdi9tz+n//1fHBiSNLNmSbCfRNnq/hciK0WONRjMjp9Pxcl5vX0Yv/bW/H/3w5s2759ebH1/6e38/ygi9hN699Pf+fvRChPwcMpYn5Lo8IdflCbkuT8h1eUKuyxNyXZ6Q6/KEXJcn5Lo8IdflCbkuT8h1eUKuyxNyXZ6Q6/KEXJcn5Lo8IdflCbkuT8h1eUKuy3VCiXELfcvvUwaE/vzhWib6q6bd76yg9LcWCJ17Ua7eoLpZkkY3oUVLQ+KYDAj9RNv+XA3IplM9IXTTw6GqVZIS2jBcNhgGh9UaIQCo86EFQj3UvQj3KxoladClGm8aDIPDaosQBPSHvs92CEFA+F8KqC1CdjOoLUKvYAa1RcgWUDuElq8BUDuEIKD/mABqhRAEFDcbBZfVBqFfQX9GM6gVQunrANQGIWsT1wahzM1+HYBaIFRjBjUnlMxfC6DmhOzXoDYIvZoZ1JxQrRnUmBCcQf9eL+6qhoQgIPMZ1JTQK5pBTQnVBdSM0KsC1IxQbUCNCL0WN/umJoTqA2pC6PV4cVc1INQAUANCENCsrVFwWfUJNQFUn9Cu7gxKauVgk3qXtdljbUKNANUmtKsxg6bnwW65jaLtcnc6TysaJhexHx/j0e2ywUI5qo/nzWq0m893o0Hcr+r4qsNsdbmPrMf5cXM3Mbz9uoSaAapLqMYMOs8JDsJbGjbAwagszpcsUS8TOV9/7KeYsMseHoutJ4tRhDEJwouC7G+kaow3DQfRmND7QGFIMN4O9ibTqSahj6CLGoBqErJfg87bcdgVFI6X6rz6AF8Gj1zIT3fwOhSKQ5nEF3yFjnG3dPN8SMdBoXnWa4DRca/9CvUIQUD6spG2CFl7cdN0LI1LNjIPJ1XjwdWJD/Jf7sNAuOK90OuAEEW3WTO8VZuuU/Ex4egfVrovUYtQY0C1CFnPoEMvUA8MSRWrxo1QeOx0FgWw+We8HSnpNW8YKuZnkuLSC6TpKasOoeaA6hCydhL6WPmk5wrW8rjcCKE0A1RsDs3XsmQ+XK/uSeyTZTnRjOlc9zVqEGoBUA1CEJBRZdxBtvxgzFOpPSW0Pkhk8Rm0W1TMiKxjacQHpKo91i5E9oTaAGRPaGQ7g6ZdPs4o87UyEfD0E6lS8kao29uyCzMvLne/ukLNXkLvrItu/Qodj+/Ebg8cKAqvzTMXEN36QFvtF7Em1NSLq0cIACJmXtyO2RaEo9P5MDz0FyPgAJCi100JUbIoCNar+9MqjfBRsIn3twWLoOX9Yp91vI9T7jqEu8J9UHqIRKvZ/pC3X5yWCF+mONF7PLaEIKCOrk64NUIAUDe4117b6YC1JOxyGzVZsSdaenoH4nIRoHvqmBUctAnOhzvYwd3vYc2mUSA0nzDuaAY5T+9WPRyiQL8jsiT0Ubz60/MQ2gmmfKzfQwAbF4h+24whwoXVTCSER+VBgnSMo1kBW7Kmf1Cc42dMJ+aw2E2yP6r9flF2hD4WL//8HIRG4lqLuvoHb0MvCYsuQUwRFSeRQKgyc5sszvKHQ/YXoWveiW8fE2WHU32syIrQ1z+ky788OSFyGBWdoeCouziJ6GIie78pfdjH4t4FEsJGllTUKFSRPwXcFNSTDaGfFNf/9dSE0FreTowVz7AgaltEP/mqPl2hAtHEAELBSHt7smaEPhRwitNe9V51mWwIKfX3ExMCTjNbjBHSBIbn9HlWnVjZqj1dTgihOikH5laH8OZujl/xcbBQPUIgsv3TUxNiIkf2UbCrvHZKWSqdWTpo3bFgATkhAxdY9Ufp9QEMhM/Y8lR5DqpCtQh9ePMb/6HWpqgGoXEMtue4chCZkSOquXbHTKBgecB+SHtzKrGdLIGE+swx6d2VXlqpOoQ+iB/+91kI5d5Vwrb7iEgZG6DNbbDFmDTVkC5E4lxhhMw2XJKYd0KgXw0iEPhomrQTVIPQpXDxb6sumhO6phsObBJJXjQU3ccHykOwU+YqCL9mhHBNe6Qk1DlxTzTAxxpd2xO6WTVg5wzO3DUlRPNBwM5V7FiYr50OFFrRnkPBZeNzyMZPmAz7d+fFLI43px6dmgKhBH6RcLyuzMSqZE2ILTtf+Gdfn5oQC5ZyO9cdS5t0qil3+gKF2G/FyD8lhCKzkRvOTvPoGpHNFXBHQ7yxOyGXgUi4snO8bQnxaDawc2+/PS0hEM0+lAfWmB4r4/3giVYTqrKfVPtjLy9SUOY3CoQ6sZgPRAGONgaxBCpLQjDd8Bf/2DqEakVIiKDds+EnZVuMQyNCxeC0rOkmwmo4SkKdRTFpnk0k8xXJjpCYDwJ2zjaEakOokLADdq4kktKvzLFpCekCCrOuukyhlFDnsC4mBbOJtCu10qKsCBUSdtDOWYZQLQgVY9BDYOfUq+7+KQlNd+XJ9TJCmaWLJKohWRnZOhtCUkYV2Lnfn4qQvMEHdm6lvNSYkLDimBGabKUw4aX+LeQOiIpQJ4kjiWzQM/EZmp1OAXbuf09ESLE7WXM7pwyhckIBrtKDcsdaSSjZwjqSzFZhEuY1pKPjYMASRGrzlSykojlkktBvRugf0NMvT0RIXmxYKkaVXOiAdSiI93cVEns2IjTiMwgRvLw/D9kNTOldlRDKb/wUYLFS6EGPqOEZvE+8J6tUUbMzeCw/pw6hMoJWIX8TQmBvg5cL8emY6Al18iJlLOZytf5C03Os4KCxTeFPw3OsvGat6EfkYrUBhkUnV5kQWvK4oNS1GaFst7YKgLGrjF5d1JQQtHMWIdSGhIZsO6JMFdGckjouVyIDQo9sgSNyoPrRkFDG8hRyW1e2ZWBqfFof2DmLVFHT0/obNlaq18rRR12ZwCuTASFadKDMx7Foh5ZQxohXOAcrTdvmb7wAds78uH7jd5Kk3M7JqSIeBLWI9xsQoqUIXazo92w8h3KxpRStNS2bE/oM/gu7cQi1MaFHbsuxlCpasMGyWIgMCLH8uSrvxFK3RoQ6KxoG7Gr2rS281+eTVW8tEeJVVYqnkC0JNmbOgBC9p1BVbLTU7IcKmrD5qGnexruxgJ37+GyEoD8nJUXfs5CReerZhtBK/h0PupsRYvvu8izKVW0Qgnau+m21bRKa8EiXFHdg9RsoMo7zGxCimUFVk1111EcWJaRr3sobAH/m/b1991yEoJ2LCiFUntjUVAUBGRCiU1OR5ANnVswI0Vt8jnXojXDu2CyE2spbNLk/J501AdHVkToAPizOOwNCR7Z2FC/eg3yRSGhYUn1JvZln8OVyfQN2ziiE2gqhCeJ2rrDegNNDwVZ+pqeLlIwLq5fNfqjogcxgbkEgdMZ4GytmyRBVeR1QLb0rGNq5f56LEDjIIK03wOogcoTH4qf7eB5mI1p8eA0IsTquzHiCHdFhJ6Q7BEIZVETC0ULcQCUxMvZl2nrfNjgVYRJCbemN6HN+aqf4KB5BKjzE3fkgns3izWq+Jbcjc8V5YBKX4/ndMBzsJ0mSPO7v14V4dZHQ5fAdWa9m/cf8jRqTw2zEs7T6Q3htEfoR2DmDavuWCE24MSvW0BcyOWFwLcjh60UdQjMwM/PcUJ5/ko7LyoSu7fO6oCC4HKrkl2gPCbT3XwW+gk711fYtEQJH7RAp2LlpVHVoux6hzra8T9RVuc9xdVUL0bua7f1nDmDn9CHUtgiB46rSufepnLBuTGhYesA8XA9Da0LB+9ZPSVYN+g+8V20ItTVCwGmT3lOSjFSvJOFDKrY2q1M4l9SRkPWUxn3MCWGT0rz2CAl27s/nIgRfTyFvFRdyic1NiBT3UIa1PvuuYmaicX5c/NZDwdsunXVBYPQSXQNCbG7oIjrgEKWuxNHk/w9dv8eDLsPFSweIfGgh2fTk4kOUrfLbTTGBQEvCdVGIyajYI8LRZb2/xpqQGGibDJD0kqbrE3KsOr7BZUCIxq6/6Gp/v3E7p/MV9IRifCmyJtoDi9MuLchWnhZKFrvu5RUT9E1kBKPlSYH9Mbr20tNWg/ZHXeGFaGl8XU0OD5e7KMY3potRlLv4IbsHgsPlxoyPWb7g8y8X6Rt+++Um7abV4P/gTa7SN5zeWk7KAlxJP16l+av3Lm/zK31ZX1Ldi/An95vdOu/v/e7+zG+x/I7zlwWm7y/3sE5X8b7duu2nkP9fksbyhFyXJ+S6PCHX5Qm5Lk/IdXlCrssTcl2ekOvyhFyXJ+S6PCHX5Qm5Lk/IdXlCrssTcl2ekOvyhFyXJ+S6PCHX5Qm5Lk/Idb0QoXcv/b2/H2WE3j2//Byy0NuX0Ut/bS+vdvR/muIgE2A1w3gAAAAASUVORK5CYII=;" parent="8s-rB7mAuBpaN1bvlLKw-8" vertex="1">
          <mxGeometry x="16" y="12.20999999999998" width="122.65" height="35.59" as="geometry" />
        </mxCell>
        <mxCell id="8s-rB7mAuBpaN1bvlLKw-10" value="" style="shape=flexArrow;endArrow=classic;html=1;rounded=0;fontSize=20;strokeWidth=2;fillColor=#009E9E;" parent="1" edge="1">
          <mxGeometry width="50" height="50" relative="1" as="geometry">
            <mxPoint x="463" y="225.5" as="sourcePoint" />
            <mxPoint x="523" y="226" as="targetPoint" />
          </mxGeometry>
        </mxCell>
        <mxCell id="8s-rB7mAuBpaN1bvlLKw-11" value="" style="shape=flexArrow;endArrow=classic;html=1;rounded=0;fontSize=20;strokeWidth=2;fillColor=#009E9E;" parent="1" edge="1">
          <mxGeometry width="50" height="50" relative="1" as="geometry">
            <mxPoint x="615" y="370" as="sourcePoint" />
            <mxPoint x="614.5" y="300" as="targetPoint" />
          </mxGeometry>
        </mxCell>
        <mxCell id="M1PokM6IDH203gDfXHcn-1" value="" style="shape=image;imageAspect=0;aspect=fixed;verticalLabelPosition=bottom;verticalAlign=top;image=data:image/png,iVBORw0KGgoAAAANSUhEUgAAATEAAABVCAYAAAAhd9OQAAAAAXNSR0IArs4c6QAAIABJREFUeF7tfQmYVNWV/+8ttVd19b43+74IgiyCaCsgEuMeTDQhiZkZzUzi32SMJmYRUWMcs2GWzwmTTExIJjOikoCIKGgDiiyKbLLvW6/0Xttb/9+5772maHqp6q7uroZ6fHzd/eou555776/Ods/l0I8fDoDeEf2dFoiuHFfhPuNa/6Cyz9hzRXScWgMXTzPxI2FPf2Buf6CxOxNyuY+vO7xJ1b08OZBQELs8WZQaVYoDfcyBJP9m6mvyLhMQ62s2dmWRJyfNsVAVS5mucCRVJ8WBrnCgqyDW1XpdoTFVJ8WBFAeuPA50aO5ubc2OjT2LFj0FnjfKahoHcICuc+A5HZp+AdTob1YmhndUJvprPda2otumvlrXa2tEbZWJ9V3r9trrr6vtdYfeWGhLFF/jndvYVla7pboq8XW1XjfJ7bPqHNuKfdZ94jp+Gk8DY3XgXms09LPTkcUuURGIcdyiDim+0lZP4qaPfSd0Pl2J7PAKbSvBfE5wc1fopDDB6CcL9tc8tzycq2HVeRXIVIHFmrkrOg1CiI1xixYtBsc9GVvheEqllkE83Oq0bIqdHUt2lwF/+s8Q4qBU0n85c2/oZ3qNptjtHqksxx/B8gbZBDICsw7ntdN9AZITDEmsB0Aslu57o0wcDO8NclJ9pDgQBweSf/V2TGFmRPvdyF2R37ojfCTo4gOOZjFQVlYbAn4tdyaNxapOcnjyycXg+R/FwddOi8bM+JgLdtplwgokIUkJG1uXG0oxpcusS6aKfTGNWQHlL6P3hP8QkfVAGuwNoZBcvznL24xVugQsVjsytsQBYosWg+cSCmK9PXE9Ojk92nhvcyrV3+XOgb5drpf2XhxQlg/fI/1FhtbIAbWana8pdDQ3Ll+eE06BmLUa+3bWErgnLpuBpHjSmgNJNrW9SU5xs7pi0K7w3zSgQdeFas2mVQ/wNtf3GIj15uASuNJTTV2uHEjogkxoY5crxxM+ruJG9R+Dd4X+VwFXr4uoUnW1usAp1q9c6QolVhKDLkLhnJm67uYUzeMCHNA5ERpYAJmOqNiwhA8z1WCKAykOJBsHKPYhVptUR7RzHKcN2Rn4X5nj6nWBr9Z5rirxkhgWCQsWVDvPRbxpvKRl60CmDXyarOoOTtMFXaeQu/76JGoqkm/8aQ9M+O83jx5xEmVfuuoqLLvrLkbkX3bvxsIVK9jvvfL+zrvYau/1fvtqvKl+Y15X33jl9QPjtgR+LAh8WFe1eo1XanSHp7rYVdeQWHUSiwTcxtlnnG/2uly29EZIfoeN82gqZ9c18LrOdwhil4uQ3p/GoesaV31H0T/WLlwoDsvMTD6EjZGiy/crJkYGXG7FWk0ot3gxrt/U+AVB5MMyhwZNQI3QqJwfNEhsXLbME0mcOsm+Rx+2lZZmuiJexeMOaZ6gQ3NA4kRdUDnaMAnldX9Ci4QOvKPG2tjOHfBJ1wXu+f98aHVJenpufwaxXmNvv++of8J9xhNPvT9+R+hFUdZCukNvQBg1ksTVbi4qbMLyYgm414rcb3OG4gEeHljEY4HfVlrd4JCkgJ3L5kVFBq+pSjzt9PulkvAB9BBga3aF2/aPX27keX5gwmlONZjiQII4MGvuY18Ex8mygoBL52oBuUYQpLr16wMB4GUpUcGuRC5tNY4BGWoF3JYlLHBWMYN+JOK9AGI9tCETxK8rqhlZdnGrVy/ayXHc4Ctq4KnB9isOzLzlO18WVS4iaUKTG9J5URSqJcldV1bGBYHFCp2s7GhA8UpQJpBRk69wwKfx1u9XzE0UsZ3hemefdzaBbZ+OLeeAAm7y7wob/vdzn3Om1MlEzWaqnURzYOQjTy7N+zT0HoVXaIJWrdjl6lxVr1+zJhIClhKIJegA+MWUJzd4dQcVEj1Dfdce+8IZsmRJaO3Chbb4QKx/2lb6jtWpnrvDAcuwr/BCHSBXxeOZtFTE7vSfqttXHOgcqC0QC8cPYn01qFb9JhmWJhk5STJJ3SeDQGzWpub7FE6v4zi1MslArPOd1n0WpFrogAN82fETp4rSfEXxSWJXIk97CKJ6qNnLaYaKvr/owyFbQ79WwNfDplVSoGueDQ2xROtfNpJYskFlEtHD67p+CMDQ3l30fbdz+67nNjjcDjFJRWPvLow2e7tp3qP/JGt8WFPRIPN6leJAVb4u1fW0TSwJhp4EJCQRWl3CDYO2roFYr+yyXukkCRZJ90iIiUsxFeoeHT1Z2wIxm4oGjlOr65x8Zb7urVuzprxHDftdHlPP7PueabXLg0yeivzk3/0ucFl7J/v5Bk6epdJ3lIx85Ie/z90rvUvqpCbo1TqnVMZ6+PuyUSf7jv1J3zM/ZMmS/mvYT3r29h6BlzNWRxv2wdmq4BCqYj03mQKx3liDPSIkxtxo/CDWsluMXyjKMCo4sCVgJ7ljbHpwYruLJt2t34ND66umk9w72VdsSfVrciB272TrzaXrCMsyqoJBODUNDpHuBROgcTronj3jYr5Ob9O6ZCJ4nocoirDb7aDfrYfrz0lQUsutWxxIuHcy5u/4bpGdqtxLHOiaYZ8Rp6OyqREfHz8JjyIj2+UAIBqymXldaDyJpHTzYkQCLgIwj8cDr9cLp9PJwCwFYr20Inqpm3gEzpR3sq1JuaKQuMPBdhnEaBGebWzAh4ePwCvLyHXZwUMAr2tMEqPPY5bDzBUdDVSCIDAA8/v9SE9Ph81m66Xtlahu4tmm8ffZs63HT09P1uh33sl+iTnxgmK85XtuhXTLO1ne2IQtB4/Ao0jIcdvBQQAH1QSxxFjFCMzS0tKQk5PDQI0kNgK7lGTWc4si/pYTC6mtW7vivZO9jxe932P8i66lRvyG/ajOKhuasPXgEbhVAjEHhZ1Fmfq7TlU0By01k4CsoKCAAdnlA2CJ3fxd53hy17zIOwlbFZwp72Ryz1jvUtctECtvbMSHh0gSI3XSYUpilhIZszIZ04gJzAjI8vPz4XK5LiMga2v4fQVufdVvx0sgbu9kKzkiMTpBJzR28HFid0JM2+WKKhS7d7IVW2hiypsasfnQEXgVGXlOB7OJkSWMY/fB6NB4MvIDgs7TW+iczryXgg7mvVQ5QCP1kMI0mJpIV8mQSmra03QOgq5B53VDyuM4ZGRkIDc3lxn/6elQKrNWD3OVGn8YvlPzb5Muw5WqAzr1YWzk6NLsD3K+JujSi/69wnqfCwn3TiZwAk4AKIxKaFYO5L8APPRfRh+LrZUXl404DvqaAW44oFdG1bFmaB2AWwGEzXVrbYchRBiAhWadizSfOPpOVNHvARgE4F+j9telolD7Gm6XDfs0gIrGBmw+fJRJYgzECBRMECCwapYjkGQFdsEGJ6EAr7GLrzSNg64qiCgKGqUwGmUZPMcjx+tDhjsNdijgOA2cLkLjNPaf2qaHwi8IxAjMyF7WPogRKBn/Vd4AIIFlSDfA1IAznhUxwJOA1AA4dqeNbuTZI1ClMjzRY1zadcnTgpVxfhbLImj9Ld4VqcJSyTsF/VgI6oMyyeydJBB7EFhUhgV+YcjHy2YcO/bJ2nHjrh+/d/BNJ7HqhAbYVWCplT+7Hanskh3aVrm25r4JuHYkcHMlQAkC6SnQgcW0UiMAvMAi+mk+i4mO2QCeATDDyGB70WdszbcCxFim/BLaWo2oI2n0CQPEXvk3IwElS3RIY4j+ArBoaGs/cN05AN4eiFFHIkT87fABvHPyOCBwEEQeNg0QIjLCUgRBWQKCEYTDESiqDjhsyCrIx5yxE/DZvDz4RQUqREi84fEUzBAMGgyFX5B9jNTK6FiyaGaT7KaZUqFmcoMkQEPi4qDyHHReBa8r0GFjIMqTdMjrUKFD1BUGnCovmodMZXCcIf11++lMmOns8zgIIABTVZXVIF61x684muz1osnqnaR9ehwY9PWFCz+3qbZWtO/du3HGyZOb/zJx4v1Ts7Iyatev/+0pIHMlUDsHGHonoPHA8Z/SGgYgAyVPAV97E/jzDOD4SwDGm9y9DsCvAEwC4ALwWwAzAdQD2EtzCSz6J2Ax/f1HADcD8OXn579YUXHLi8DL1NZXAWzHzNvvROakegNQAyKwfDuAYgBrsOAXX8GmF76KiopvmNJkFTDmEWDBwVYgshRAFYAfmtLSFwHcA+BuAF8D8IgJflH1X/o+UJUH4GFzTD8AkA3g261W0HdN+mmnZQGZ+zCr9GFs2joPOPsg8Mos4F6qUgJgMwCSJCknecvTnbOT7YOYBknV8OyWbSgrr0YTaZm0kWQASgiQA4CkAZJsvCfJyO0CBg5Gbl4mvlRUhPtyC5mv067whjRGCGM+tBHz8vKQmZnJJLO2Hw26riAkaThaW4vqQICprIZkR2IXB0FTYdOBHH8uirMy4eUUSLKAc4EgYSpyXW7wAjkr6FEArr2+zBnsipjUFvEJADECr1AohIaGBtTX1zOJ1e12s3AV+hIgKTaWJwGkxNJNVJlLe0xW76QJYlw2oNPXBH3FObOzR/2iZOqtvxIVXdv+9i+O5OcP/eHYsTP/OxisdX744Rs7MOTqL2Lywg+w89WROLx5PUZdWwopnItjn/wKeHgSkKkDL88ETi4BHrwGWPoUgJHAgoVAtQcoWwdk7V248IGHli37WRWQ86vS0rt+fvr0kRFHj767YcqUr5bk5kqR1av/p3bGjLvyMjJGyooS4VTVrq5zuWSsevl64MTihQu/c9OmTW/POnFi99IJE+6aM3Dg8PKVH/1lAc6dewK3Pz4JK6tkYCBJbhqw+CoAbwAPDwYiGrD0XWDg8wCCwMmXgSnXAWOrgbfvA85936j/8qMGiD38LWNMLz0BVGUBDz5qzDZJW/T85+NA5TcnTSq9vqBg+vnVq/9rCfVZWnrzY2Vlf9uH0dNvwf5R+4CXfwTABjxIYGg+RhtDlmQEu5oUsSNJTJKA53d9jHWnz6KJUwA1QgYwQOaAsAzIQUANAaTiOdxAQT58WbmAXcQUvxf/r3gIBrld4DTZlJAuVuV8Pl+LNNb2LtHZyjpaXY+fbnkX604dhyjboQg8JF6HXZVRHQqhSVHxlYkTsfj6GzDA58Le6nr8aM1qDMjJwWM3XI8Cn49994gshtdgOwFCtIpm9c+2H+Fjqyjftsq2VoOjy0SrpwwXzdMKVMYKMWkPGawyVVVV2LdvHyoqKliMHYF9JBJhwD927FgUFhZeFKpi9W+NrSP6onnQWTmLzu54lJPVO8lAbMCAAQ8XF9+7NZgmutWzn07Ys2fD7/Pyrnpm9Ogpb5aV/fLTYVM/W5orjjp66tRbM8+cOf3UvHlfu1EUHWyOV6/+3Z9yczM3uFzufSdPnvzF/PnfngbU4sCBTdOOH9/5c9z21HSseuqDkpKSxePG3fmuLLu5vXtffaiiou7q0tLPPVxWtvTkyJG335A+ZFSFxKnCJ2/+fO/o6XffkCkUVnzwwW/OTpnybwOcTruiZdg5vUZT/H5PeM2+l2fh5MlFpaWLbi4r+/OPkKl6Z429+ynApbjdYXXt2l8eGT78xvkDB049kJHRpC5fHlRMlXgDUPxzjCk5hn0fvnb77Y9PWLnyjz8ANM/8+ff/gGhTFCdXVrb4GNWvrz9xW3V1Q+78+V/8js3m0rdsefmxqio1E7c9/DhbFM40Hct368CaRwGlsLT0mz8IheodFcHdk0/u+filadMemLp161+/C+jOefO+/MO1a3+5e8yYmfMmT76WVHgsq/fqWHVeJYAcsiSjOdEgRtYjgROwtaIS644fw5FAA+pVCaICBgYegYOP1ENNxSEpggaXB/D4wfwCvIDhfhceHTgM43w+KLoEntmqLgYx2pQlJSXMY9k+iGloklXsra7EueZGiGQcYzKVimM1tXh1314EFAXfmnYt7p8wBm67A3uqavDjDe9iYGYWvj3tWhSkeaGCB68aTglmLjPVUo4z2iO1lYGLpbK1BjGmwhpODKbi8hRRZ0l4BvUW+LD2WB+GC0KIiomj+heAjLAt6liW2QbVJwDbsWMHHA4HxowZw2LsCEQaGxtx5swZ9n7IkCEX2RSj+28dh6dpWgtwW2DUXrxe63YswGsPdGN5H7d3slWjiRKQW9NK3D9eUlLycH7+F7b5fPAoimzfs2fVT3heaBw//rbnysp+vmv69AeulbN9NZU7d1x35sye7828/aFb+DqJLaFNm/70h7y8zM12e87u06f3/XTKlIdusNl07dSpDdedOXNo8a23/uv1q1e/tK6wcMQLJSUzyjTNzp06teJrlXJ44rRp9//71jUvHJw+/Z6bfL6iWk3zcOvX/+SjqVMXzAv5siv3rH/p6MS5D43IFzLkCtJf7ZqUrvKhPXv+Z+apU6eenDfv27es/ej1pzJ1h3PA1Lufs2mSaneK6gcrX9g3dOj1d+flTd3rcoVUj8cjrWRS2TufB4ILAP5Ybq6/dsyYOb8pK3v9B4DHMW3anYuJNqdT5jZtWrKf6jc2nrq5ulrNmzbt7u8Jgk3fvPllAiR3aek3n/B4IlwkomsMJDe8+m1UaZmzZ3/+2Wa7xxU6u+fq3bs/WDL5s1+9sanyeN6h7atWFxVNevzs2WMLZ8361y8Iwnnd4fBoJFkWFKjKsmURpezEo0eLfF3L7NqRJEZbm+c51DUFcS4URLOiMnXOyWkIATgdVLGjrh67Ik1o0EhSM5cax+Om/Gx8Y+BgFNjs7DUZ2i9aiKbGUVhUiOys7HaN+5pGHlLya5KFzDDqk+G+qqEJ/7ljB9YePoB5g4fha5OnojjdzySthlAQm46dRLbXi8lFhbDbRGboDEZCOF3fAIEXEFZkyLKMTI8PLocdDaEQmiMhOEQb8nzpyHQ5ILK7og0vZ5DOmAaa0BAIQFE1eN1u5Pt88NsdBjiQB0mS2TEuWVehcTyaQkEIPI9CfzqyXR4Gns2ShMrmJkYjbSC/241srw8eu40BPaErSVsfffQR+zllyhSQxBoNJARIBDTRR7mobCAQYHVIzSS1k/5bKqelmobDYSbVUVnLU2x5iamMJEnsMypH7bvdLrjdng5U/lggDGjbO8k1rFzpDHV2cS4be2zdxF2qBcQGDfrcdkGAp67u1NBdu955OT9//C9GjJjyxsaNS3Zec82XZ6Wl5Z0Ph+t9mzf/1/qiMdd9PX/IpK3nzxwacmLnWyuHXD37bk23KSd2rn1j1LT7brD7M2t3f/T3n6G2ceS0aQ/MPnr079+pUZUx4yfd/jBU1b6n7P/+hkzfkZuv+cLjb7/9s0+vueaLc93unFqifuPGJVuvuebu+X7/iPL1658/MmPGv0yy273NguDQmgnENDl48OCKqSdOnHhh9uxv3HiwYnfpmU93/WratPn3eL2Dq/buffOzlZUnnph4y9eudYkeWamU1MxMRcrNFSLLyhtFrFtK9jht7NgF89MGj2g4fXzjdKo/evr829zZeTVntm+4o7Ly+PevuvnLMyp3bfh8ZeWpz4+fff89cjDkOfDh668C6RtmzLj3h6oqcy5Xhgroyr59L/2/qqqqe6dN++Itmj+PO/rRGz/iOF2YMuWeZwh8d2798+9QFxhTWDhkUdG4G9/hBVG3N0uqIATltLT0CAGsrv+R6OpSZtd2vZOGqw8qr0LQOTiZl1GABBVn6pvw7rnTWFdbg+NBCSDbDFncSfzQdIzyuPCVIcMwK5vASWNeQ51JYuRVNA6WGx5EHRk5WSjMK2jfvsNsYHSCwFjK5H1sikTwf7v34Q87P8LY3Gw8MmU6Rufng+cF6JyKU3X1eGHTZozKysRXJ02Cz+VinsotZ87gubIyuEUnwCloViQU2NNQlOnH6cY6nA8GmBR5bdEw3D9xFAakeVjcXFNERtmJU3j90C4EmgNQdAGi3Ya5Q4fic6PGIt3pAN3KeqKmHn/4+COcbKqFg7ehWQrDJgq4a/Q43D5sBBqVCN45chRvHTmMOkmCHRr8TifmDR2N2cMHI4vRCdTW1uKDDz5gKiNJWwQm7amgBGhNTU04ceIEzp8/zxwAVJYCiocNG8bsjpYj4MCBA6wcqaMNDfVwOJy46qqrmI2NnmAwiFOnTjH1lQCeQI4kvgEDBjDV1QK7uJECQLJ6JxmIAcg1jeIqkNaclVWwYuLEu1/UNJV7770Xdk+fvvB6j6e4TlXDWlXVnkn79m1/AtDJWK/n5w/6ddE1pW9omo07ueWNJ2pry+8CUJOTU7SquvrsbdPmf31eWKpzn/7kradraxumAlxTerq3WhCE8okT71+0fv3zeydN+sI8j6fovCBAKyv7+TaSxKTMoeUnt/75d3V1566dOPH2e3JzRxwJOPkISWKrq3Z4sf3td2lHTJv/eOmJHeu+XFl55CuGs4CrHTRhypM5eVfto4kS7S7N0WyLpKUFIyt1t4pVv/4PQC+YNv+fv+VXNZuqitzevW9/waxPu76O6meVjNkfqlN95z79+4v19U1jAO4cMv2fkDxy7YwvL2LqkAmQn3zy129WVUmlzKycDiGT99aMHn3HooDPF8gHsGvXezeXl+9/au7cr96gqg6N4wS9UZBkWzMfyc7mQz0FYix4gVQfAjJOhwgb6oIStlSdxtunT2FvUz1CzFDvAAQH455L1zDG58GdJYMxIy8PNtGINyPQarlU0AQx2qwUFuFP96O4uKRdEKMeSH2jh7oLKgrWHz6Cn72/CeluJx6ZMQvXlpTARc4BUhU14NOqSnz59RWYWpCHp+fMRbbPB11X8Y8DR3D3q69gTFYG5g0ahDpZwrpDh5kKfHV+IYZmZePj8rM4W9uE5+feiLtGjQEEHhtPHMPzm7YiLEuYNaCEeWk/OHMWNYF6LLn+M5g1agg0XsGuM9V4/O13caS2EqWDSjAqOw92XsCU4hJMzM3DquMH8dJH2yFqPGaVDGDe1PfPnoUsKfjerGm4ecRI2ASRqYvbtm1DaWkpA5yObFEkOe3duxc1NTUoLi5GVlYWk6KOHz/eIskRSFEbW7ZsYRLe9OnTGbgRQNFnBE6KouDYsWPsP3mNKQSGAJJAjUBy3Lhx7H3cnlFT4r7YO6lU1zmFHsjsGv9JGx54UFiwQHScOmXzZGS4XOFwhLl+eF7UNU3hbDZDv5BlQSdpqN4VVETVydazIoRbjAEEYpkRm6DrKkf1qOx5m7Huyz959zae58Pjxk0tI2D8+OMVv7HbCzaNGXP93zjOJqiqxNpxODSlWnDLDo70GoBsZDkKxxPQ1Dpk1dukSoLgD5X5OObZK23S7ara4HK5RKckqQLRLIq6dt4uqbwksl1jgVhOTlV4+fKDDmD9usGDJ3w3d9S8fZ6I7oimleNlVoc3f6qKm8+SwatqhLfaruJFncpRGSfvVLxhOZzmjzB6Ghsd9kab2xXWwqKu2TgqpyoRfvfHK5/O4T1nr7rqjqU8HxSIl01eTfI1ZwQNunKk7tw72VGcGEkvZPXhBRFHa87jH/s/RdnZU6imeC+HaEhgnANNDhG5Ng43Z+XglgHFGOVPBylwLOYMFOJgKWVG5jKmFlLclg5k+v0oLCFgaMfTZlnIKXRC0bD93Fk8vWEdKoNN+P51N+KW4SPhdNLBddNgr3PYW1GBr7z2Gq4pzMczc25GTpoBYn/ffwRfXbEC/zzlajw2dRqqIiE88dZbONrUjMXX34Q5w4fjlT17sHj9O/jW1GvwzakzoYs6XvzwAyzd8ykemzAdNw0dCo6XsfH4MTy3dRvuGzEOT8+9CZxDwe7T5Xh8/Qa20Z+fMxujc3PIEgeR53GyvhY/3rgBe6rP4/GZ0/HZocOgaTz+ceQQfrJxA24oIVrnI9PtwenTp7F9+3bMnj2bHZ6PViVbS0EkfVFZsi2S5EWqIkliBDzvv/8+Bg8ejBEjRrAvCQKxQ4cO4b777mPqYbTdrLm5ucUGR9KZdcaVpDMCVAI7kgzpfVeeJPZOLhIWLgw4TpywuYP+gCs95GYgJgpKS0QQbeBKXtbJW+kMaYok6RrZj+wFHK/IhqXXAjQCM9rAFpNIEikv3zti165Nz5E9iTygWVnpW8aPv/1ZQfBpFoDZbLIqCG65ya5JSmVEjW5fUxWOVDDURmSfzxlel5HHQGN+83FbQ4PDKXs1h8zb2Q6yAIZAjOpoNbpC6uTafa9eh9OnXwZylt566z/9Ry0nuN0h1UGgW+fUFAIkqq+p5Lajnwqn2RWOxkN/R4/J6sPdwMtpac4wtU9lKESlqkp1IEO1Ud1IY9Czd+PvtyA9ffukifd/XXOmKZmSKpAkZqnGa9NKQlh+QBmyZEygq4b9cjPYtSVi3wx2ZXksdA02TsDJc1X4zXtr8X5tNeBOBygbhd0G8Da47HYMz0rDvIEDcENOPrKdpCRpkHlAVEWoLJ+YClEzwiKM70quxfCd5U9HUbsgZhjRmT5KDoTqOvxsy2ZsOnMED18zHQvHXw2/y26Ed0CAzFEcm469VZX4ymuvmyA2FzmmJLbiwCE8sPJ1PD2rFF+fPAl1UgTPvluGPdU1+PHs2Zg+eCBW7z2MR9e+iXvGjsCj15UiqEh4+t0NePP4YUzOS4fPTqqXhkAohF015zFjyAD8Yc4dEL08dpSfxdPr3kWB14dnZs9God9rALnOYXvlWXxnzVoM9GbjqZtnYkB6BgvcPVhdie+u34imcAR/uvsOlPj9zKi/efNmTJ48mUlXHUliJ0+exMGDB1skJQvwSB388MMPGehMnDiRSVsEYuXl5bjrLlJ4LjwEetXV1di1axcGDRqE4cOHt3huVVXDzp2fMFvZhAkTWGqlrjxJ7J18hceCM/Zbg1VO2oB8Nie2gAaBmQ2aVK5rPC/pdrtbI+9fJJKmkWE7EHAKoVCdQIBjMYXKWQZyxe/hW4MCSTfGRhaZBEYbWhTDGklgHnuzZGuUJI8nU6WQikgkwEtSWou0d7GR3qfjtizhVi3sqKtTbIKgCFoGWTUAvs6QwghsvV5FuWDYp3CLk/ycOXlRlsHeAAAXbUlEQVSOhgbNpeVFWNQkX+mQPB6PApwD9SfLHE8G/nCYopdIMjPGZC8I8ZrmZ32IDQFNENJll+u8tMY7WCYv5e2359oaG+sdgYBftOpTXXIKkA2Nz/GKJKWRFCdWc5HMTC20Zk0mnUbQuhNiwUDMPDuZ76KIfbIrkRHdMKaGQhJe+J+/YN2Jo4DHBzg9BoA5bCjxZ2D20KEoHVSMQX4/REGExo4ZkR2L7PwU/c+xUAj6VlM4nnk2aVJk3gCobH8GitsBMRbsSkeWNA5nG+vwxx07sOrgEdwydBgevnYa8tLSwGkawKnQmM2OMmNI2F9xHl95bQWuKcrHM7OjQewgHvj7a1h8w034+qQpzFj/7Mb1+LiiAs/PnoNrBw3GG3sP4ltvv4m7xo7C4zNnQVFkPLNhA94+cgT3jByBARk54AQNMqOLx6i8LMwpGQHdzmFbRSWefWc9irweLJ4zG0VpPqbeEi93V5zFd99eC6/Ni2duKsXI3FzmqthRcRbfW78BcjiCZQvuwYB0PzOsb926lQUCX3311ZdIP9GGfQIlUidJ2iLblWU/k6QINm16n52KIMmKQIyAsbKyEnfeeedFwEggRnYwUjUJxMgbagEngSF5Senv8ePHs/i0rjwMxDY236fwyXXvpOG6wSJx4cKA7fRpjw0oF1U1i9RBXRCqdafTp5EXzmYL6l6vqjmdbp2FBgC4nQsKjY0ugQCN/jbKOXVZDrNQBYejkVcUiaMNbIBKGs9l82JQUW0ZYV60VDlSUQlISKJxOGwy2a4Wpjdz4XCQi0S8nCyHOCATXm+1thzDVCxvoJg2DagVFi50iDU1HiEUAm/RQQBIISCBgEPPyalWLoRYUEzWSXH+fJ+dJDgCPgK67GyXJAia4nA0683NObzVFtUXxZBus4V0Cr9w2DleUSPMjSXaiD+astKRrxj0lOuAJBhAdoEn1AaNnXhRX6/ZxDyHQF8K5GhYzTsjWKVLwFi97PjUk129dzIaxOjYkQADxEi4oQ2x9fBhPPeH/0Y1CYx2J8Dyg3kwYeAgfGbCREzIz4PPSdkvSMSirLBkGjSi89lZSUqGqKk401iHkAYUe9Lh5AnQDIN/XmYOCooK27aJURuqjtpwCK9+uh9Ld2xDnseLb0y9FiNysyGYMV8EkD6HC1nkKbSp2FdR0w6IHcIDK1ZgcSlJYlMQlCQsfn8ddp6rwnOz52DmoEH4x779ePitt3DfmNEMxNw2G36/42P8dvs23DZ4NO4ZNxIehw0VzQGcDzSjdOAQ5GWkMUD66FwlfvTeeyjyePHs7JtQ4PcxwKbTA2fra/HLDzbj7RPH8KXRE3DryNGQdRlvHDqE33/yMQZ63Pjr5+/HgPR0ZosiCYsM8UVFRQycSAIiICGAo8BXAiWyW1EwLIEPqYcjR45knkwy7p89exb79+9nAEaqJn3eGYht2rSJ1SfgJPWR6CCpkNohcLPU1a6AWNKdnYwyn7GwGmCRQMeOFjrP8QQeLWDFYqGOa0awJz20WQkM2NEajiQbLLjKkMRYzJTPLNfEsffhRvbZAmcV39ws8JKk2Rob3TY+mxdJSqOQCL5OkB1OTVrnpEBWipuiYFR6qH16as2fRAP1bx2BeoUD1pFxhweajDIWLS30tAS7agCV3yQuWKDagsE0WzjcxKtqtlpSEpApzMEYI/Vl0n7ReKjBJg63DTIkwwt8Uc2TAQAWmbyM4gmVDTdy85XzoqaJIoE6fTEQYC9b5pEt13R3jh2VN9DZySNwkafOaYeg26HxFEoBiLyAsj178PyyP6MhGGEGfFeWH5PHjcFtkyZiFAGYzQ6Ro4gpMnwZsVQq/VNkBMISapsCDMA2nzqCCcVDcNOIMRDJGEZhAjyHksIiIwYqKo11yyahtlQNH1WW48fvvoeyM6cwPNOPsdnZEARDjWSAqwGlA4fijpFjkO60sZiyr614BVcXFuGZG+chx+cBGThWHziCh1a+hh9dX4p/mXwNGqUIfrJhPT4qr8Zzc+Zi5sAB+PuB/fjemlX43LgJeGRmKct2u6eqCr/evg3bjx5FSV4WPA4PahoaQYlwf1r6GYwoyIWmK9hzthw/3PgO8rx+PHvjXBSSJKYzPywisowNJ07gxW1bcLShEaP9mXQQFOeaQiivq8fAjHT89d4FGGDawChUgoCM7GNkzyIjPP0kGxWBC4EK/ScpisqQIZ9+p3L0Odm4KFvIqFGjmERHD9nOzp07hzvuuOMSSYwkNFI3rbAL6ovaof4I0AggyT7X1YDXZPVOWmvNlMhok0ef/aOPx+rmkRnLPNsKxK06rctZ763iBHqSsHBhtlBeLoiCIDEbFqmmF6SlgUrUUaHWXxbRbotoWizao8rTGFpojzIrk9T5oGDREQ4FueWcJdmNVYF7TQ3sFRh8uGhMHGC9b7Ntemn223rshA4n+S8tzBYi4SC3PJyrYZWuAC190uLt4uW5OioaG/HBwSOwyxEUuO2wazbjeBDLVsGhurYB//7Cf2BfYyOQng3f8MHMSzXQl4Y0uw0ungMl8CF0pkUPWQapMnI4jKZgCFXBEMqbg5CUIL534y2YPWIkIjwFzergbXYMHDQAfr/hPbvkIbVUk3C4vhFrDxzEicZm2AUeTpY9w7SvcRxUTsXUwmLMGTwUXoeAykAEr+zZiYK0dNwybATcTh6qLuJoVS1e2bcLc4cMxdSiIoQ1Be8dPYrT9U34zMhRDED2Vddg5cHdmFQ4ANcNGgyy8sqqjIM19dh84iSONTcyb2KW3YXhhTmYO2AI85LKnI7ahia8dfQwfHYX5o4YjjQzSweNS4XGQkN2navAxvLTCAcCsDlsKPZlIkK/O224d/xEpJuGcwIkUuUo3IKM9wRKVugEqYgE/BY4WeVqz59HKBxmYEcBxOSBpFgxK4KfgIoM/iRRRfOb2iWJa+fOnawOSX1Ujt7T7/SOJLS4PZNRE5qsZyej11wssWitgSyWOlFAyQ5rsw19sfRG0lLLhqY+WoNUNJ1tgWlndLA6RtQUkzpNiYk1S0eSrMPtl27Czt90xhNLZY/qs0WatKIWOOPs5D3OYZlZnffYqkRDJIRNBw6jvqYWI7L9zH5FR79bUFUQsGHzFvzwb39F08TRQEYe6ZktUhfLFKFq8MkkBEtokkLwUeyYIqGJHMUEbBQnNHIUHps5G0V+L0KCzKSnNJ8fA0tK4GzHzkJWM02XoGocwrIKWTPCPSjqnqZZJPsby2qhw8mLcNhEaES6xkEKUf4gHnYHINKRKYggEpulENyCHQ5BhMIDIVUGL6lw2kXyqkOXgWZZhmAXYLcJEJkySGPk2CH3BlVGWJXgstvgFR2w8aSAG2EgzEAZUWHTeNidIqxgfJaIwzzMDkVHSFUgKQo4kYOLF6GqCltZHvuFHGtW1Lz1k74g6D8BVOvMH9Zxo+hI+9YHxekzy5bWVn0Csd27d2Po0KEYOHBg1KkCriWotqtSGM1/bN7JaFnj4oXa2SaNe+EnqkL7JF/SgzWG6E3dG6l+2pLoWvOzNXAmij1RAH5JwHJ0n11OikiNqJqGLcePY8eRE5iUlQ4vF4HKOUDRMXTQmjYXr+j4pKIS/3fqCD5uqENI1Q0FnHwhhFHMyigz4IIUoWAu43fI8HE6rs8fgC9Nuw4j83JYPBV5LzlOQEFBMfLzcyG0l3ufEWiywYJxMycYvbW+ASjlGWEZkWOsKdYD+518pRwdwOQEdvSIQJVyo8k8SXBgh8d5FmHPAtfY1xXlxKCH8JDXyEtr5gGi4bL/ZDM0poCC+jlqiOegMGeF0bOhYBtL5aJzl2YeNjP1GbMLWvnb6CjTRd+4UVk/urqooo8YWbS0PpJkSWJ79uxhIEZqqvVEB9kyjnYRTZLVO9lVvsZdrxXYtQUicbfZzQpx4G83e7pQ3Rp3a+mtyyBmLeozDY1YsXsXMiIRXJXup0xghqdP5yCLGuy6CpvMo1njcS4Uwb7a89hfV4mzgWacV2QoqgJFVoyMFooCUdHg5Xh28HpqSQkmlZQg1+0yQFFXmPTk9qSheMBAeNO97Ixmu4/p6SS0ZBFmDFB4JgCy9GQ85Skz8oex857GRU1G4kTrZABhFwveNXohMugAOWGWjfKimeDEtGgmM5l7lexZDL8slhtCNynPnMabQbjkETXAzahvCuZMDGu1VNmhBpZasiVppIXRLMlk1DnKhK2aGBoioKIzmWRbI2cB/U/0k6xnJxM9zou3aztWtJ7rtN+2zDK7Fqb5ioZnZsY9CBb6oKlYf/gQthzYh5npBchwkdRCwaoCSySomkBB0kWENhqTJnSWqiegyCxUISTLkFVKhMjBLdqQJtrhIxVN0KGTqEQSjkaxY6QS2ZCdW4Ci4mLYHKLhFGjzoRALhgzmxqftb4W1ssQ67L2NgZghFBpAZbRnJEs0QC1KtGCgB96ED83yqBqgxwDMDE2jVowjUxTGcYEGA6qM85LR32ZMWDRVx7ZtfBeyy1q42HIYnWhtjw1xz2p8FSxVk7yalroaXwudpzFKOu9k3AO8jCr0hQjWCfu6ldmVZWaAhrpQCH/a9jEitXWYkZ0ODzuHaOhwhqGfA09peMgmZaaZJlnETO7ANjXFiFHyQ2YhMjUPknqoGMsSARV2jYPsdWHIsBFIT/NDpIyv7Uli1nElq62oBNWEUEYfJqiaIGaoeUaFKJnKTJ/N8k8Y+MEkIpLKDGmLSWC6IYEyIGKSldEHvbc0KetCYTN7N6vHzHKMU5aMZcbfsn5apcQ2gdIQCS2JzKC0fTDv2Q10IauGMZDu2L7aozTZvZMJ4TADhyREiIQMLiGNtMuc7oOYebixor4ZSzatRonmxOT0AgiiDDocRjYkp0oR9wrLlU/xYGzbm1KOGa7VEk5AnkMGeKZUw4z79LdgQ70ewaCRwzEorwgOFgxLdqXODC0tCl60SGX+3lFdo96F2lYmjLYm5NI+TIuWUbgt+5SZveJCa52No72FYPIqDoOTpaiYJrUu26rMwcWQJ6KtOYh9YfcH72Tso7nSSvY8MF+4dzIjs0uL2XJzKjpwvKIKP33/TUwQ0jEhww8bpzBJI8LbmNeNJBW6+IOpZK3Xtam7CVrENHJT4kHCLxsdREV1Uz2GDBmEkUOHwWOnOy6T7OKONkwYzHwf5UyIpph4YF1Hkohlbam9l0Jha504qreu4mZnBHcPsy5pPRbvZPtbpXWKys6IT33e3zjQPcO+CSQsNz10lifswJnT+OOHb2OY4ME4bz48TFqSIQukajlYaAKlvCFjNLsMiR0xMizmZPPSdDs7XkSGfBk6nWpEuRxA9sChmD5sDAtx0ATDGG4YtHuP5e2ZWi1p0hKGWsqZxn5DrDQgrKfMtS1sMPTdi5jCHAdtYJdFj1W6F1kZ16Rd8d7JuLh15RXuFohZ56uZsV7VoQsci8faVVGJ5Ts+hhhswDiPB9l2N5yckeLZCIS9sKENy5nxwkibQ3DIQdZFBHQVdQKPwkFFmDx0GDI4m3GekEDMNIT3BohZYQ7m/Uctq8SwB5ljsTK36gTEhlOBjPoahWCY71TzJymmis4zOyDDHI3eWPB2AeZMv8Slq7IFbUw7FMl0FM7Cgng5lqZHMG1+FHkhsigOyhLLs5/0uXHNgPU3wZ4RdGyFQrCWW6FaT9i7YtlyV4Z3MtFqV6Lbi2Wm+qZMl++dNGw9hkRkXdvIAIVJZcCZxgasPbAf+yvK4Q4pGOiwId9hg1sgr2VUWmXDgci2MIUQ0MGvWrrqTRTgTc/EsAGDMSovFy7RiJyyjP5W/3GYgrrE4YuCQc200ZZDgkBK1XQWG6Yy4CLQoncay+BKx5VkjYfCgk0p4NYIOqUy9Jligpdu/Yy2nbUY8Y001Zc85isGWwRQDLw4lg2WgZh5sxGlt3byCvtbpGBX9l5ggCZyHGwMyAwwo3YYl+lnlOjWGrx6G8xS3skuLd0rplL3DPtmRkvLQEw/rSzTZPMJqSr2n6/E7vLTOF1ehYamZthVFRk2O9JEB5x0pyPHIQSF5boP6xzsbieKszMxODsLQ3NzkeXyQDSS75txV6ZqlGC7Sywz3hJ42pIWyEBy5kVlkouJLGbs2QXoMX2dUWKj8SZxyqUxBxeZ7A2aGBgawHRxmVbhIwwMzSrsIuNLgdMaf2+D2BXhnYxlAfbvMj0mGnYbxJjx3bRPMc2ISWZMrmJpcCjoVdJUVIaaURUMoKKhEecbmyDRvZOU653UTEGA3+NFkZ8uz/Uiy+OBx+lgkoIVf2Xl2WcCgrlXL5LKeniCrejz1huZqZQtXgZTvTPDLAw+tBF2cJGU1YI17QlbLVBnwUqb0BeNOVb7lrRmMor5V6NtZi1zZYaVtANePczaTptPeSc7ZVH/L9ANiLvgnexCsGu8nGPQpmmm6nVhKzK7GKk3vKHSpJ4UB6I5EIt3siOOJf2K6sYGjn+lJLizBDcX/3iA7hn2u9Jjd+v0gRrZXZL7vH7cPIu7Qo8OMXbvZNs7KulBrEe5dxk03glQ9j8QuwzmpGtD6Htg6SsKrgzvZNdWRaoW0D3vZIqDKQ70AgdS3sleYHJyd9GhLNaBYb+vvneTm5sXU5fiUW/MVso72Rtc7r99dNs72X+HnryUX7HQ2M7A+713MgmM32y1JwsdCd56veqdTDDtqeauEA5c9t7JK2Qee2qYKcN+T3E22drtp+Idkc3TlW2bmu9TOL0OsFXBKVQVu+oali/PCVsX3nTE7hi8k5epjNKDizCJOHZlg1hvbeze6qcH12xfNp3yTvYl99voO4kAjJRkvuz48VNduXcytS+tyU1xoqe3WMo72dMc7t/tM8O+DgyNQeROnpH2OG50rYOu1UoetiYrJSnvZFLMTHLJX1Es6RnvpLWbU7s6KVZffyeibe+kVLdmTSQELKXrEjo8Sd+vvqCTbbKSFrouMCrlnUy2RZOi5xIOjHzkyaV5n4bek3WhQReVKg16VYFTrF+50hVKkGE/xfV+zAEei556DRzuzA1q3xn3UfOHul3M/mSi67F6J3cdjWtErfz7ogOhD+n3g5O9/3zOwV/bV+/pS2F4EtHTV3y40vpNU7T9E7aFn9RVrR6iVq07xOohfq1h2TJPJAVi/Q59Ei7b0a3kYmkp3HZ7IENR1JwQJ2baed2lG7eZ8TrlwOHNDO4ap3Nmfpm+fW+lgk0WepKNP5cHPSwJMF2EJXCqIKgRTeEadQE1Uq1yfmtuRhNWjYkA95qXdba/mVPqZB8DXcJhi42npVUOeFCcP9/hqoUrza5rmSKn+FTV6VBVme6p5XVN5F26ykdYrjBB43i6ARJIvU/xoafXg85zKsfTlQqcynGqHNaFoFuW6wF/fVlOWgDL/52uiu8CiPXMruplqOh4EJfFEGPjKAcsEnAbZ59VH/G4XLI3FNJd8HCirmucptFFa3bRq8p8E8frgsirvCZruu7kVE4TYnqvUtb9OMrH2/5lWZ5TeU2Jj89JwQeJb+KElnWi6U5Oi3WddEC/IIiaKkBzhW1Ss10NukKu5rKy2hDwa9k06sdn2L+CNnhsMND/SzGVcsGCant1teIMBPyivSDEA25omo1TpBCviEZSfFHRNdHuYpJY6n1v8SHMK3TR+RXIf7suqKKNJK0g22VKpaBmZ7uk1bwzglXnZGApXedgJQdvdyd2UZ1MQd0lHG2HJZ1yqtMC3UZR6oGATMACv7DQea7liohwOMhFIl5Oll0cUAubzaU7HM3sW+/KfO/kgLoUH3p5PTidbp3WIv1ctqxGBeyqCWC0FjuUwizjSbd3SZ800PObv0+G1UOdErc44BUO+LSNL65y811BqwWTem/MR7x8qDAvrUvx0+BfrHygsmN14F4LvDoFsG6BWApDEgk3vcbNNgCsl/rupW4SOStXZFs9OU+xtx0TeFnz00V1sp9Pb+zM7OcDjZP8FF/iZFiqeDJw4PIGsV7dlL3aWTKsnRQNcXEgtT7iYlcchS9vEIuBEamlFQOT+nORpJjgpCCiP89ih7T/fwYSQ1VcgdH5AAAAAElFTkSuQmCC;" vertex="1" parent="1">
          <mxGeometry x="540" y="560" width="322.94" height="90" as="geometry" />
        </mxCell>
        <mxCell id="M1PokM6IDH203gDfXHcn-2" value="" style="shape=image;imageAspect=0;aspect=fixed;verticalLabelPosition=bottom;verticalAlign=top;image=data:image/png,iVBORw0KGgoAAAANSUhEUgAAAYIAAAENCAIAAACNfvXTAAAAA3NCSVQICAjb4U/gAAAgAElEQVR42uy9Z5Rd13kluL/vnPtC5SqgkHNOBHOmGCQqtINsWZZkSx57Wu6eHse226HbnrZH4/aa1W5btsfLs0ZtObRlhbZyoAIlyqIkSpSZABIkEpFBBAKFAlDpvXfvOd+eH/e+QiFQJimCAIp3LyzgoerVq1ev7tlvf2l/QhIlSpQocemg5UtQokSJkoZKlChR0lCJEiVKlDRUokSJkoZKlChRoqShEiVKlDRUokSJEq8+fPkSlHgZOKfdjKSIZFl2/Pjxrq6u7u5uVT3nPiJSvm4lShoq8UpCRHKiMbMYw+7duz73uc/t3bu3VqvddPPNb7z3jTNmzMzJSERKDirx/a6lsou6xMtWQ61W68iRIzt37ty0+Yndu3ZNvZa6uno2bty4cePGZcuW9fX1AVAtMwAlShoq8QOQTi5n2lcL0zTduXPHd77z3T1795w+dTrGcMGrq16vzZ49Z/2G9bfecsvg4OxzmKiUSCVKGirx0rQPgBhjo9F45pmnv/bA1/bv25dTidEEMpWtABDAFPKq1+s33HDjG9/4ppkzZyZJkgd0pT4qUdJQiRfLQmbWaDR2796zY8f2J5988vjxYzHGgmhUSOY0BBFMuZwISPvv/GKrVqtr167duHHj8uXLZ82alSTJmU+WKGmoRIkLyh8Ap06dfPTRRx57/PHjx46NjY1Nap+XjWq12t/fv27dute97q558+adH6lNVVUlShoq8RrlIJKtVmtoaOjhhx/+3vceHh0bjTGcYZ8fmCRyieS837Bhwz13371o8eLOjg5VBbSkoZKGSrzWYWbPP390x44dTz/99K5du8bHx80s5wSC8krHUCRrtdqChQs3bFi/du26xYuWeO9RZq9LGirxWou8cvVB8ujRo9/85je3bHlyeHg4C3nx65WnngvCOdfT07N48dK77rpr1apV1Wq17H4saajE9OegnHrMbHx8/PDhw9/+9rc3b97cajVJm3rmefHTyFOiMHXOrVix4q677lqxYkV3d3cujkoaKmmoxPSkoRjj4cOHn3nm6We2bt2/b1+j0WjTAQuSyi+RV0eXiQCQ9gXpvZ8/f/7atWvXr9+wZMmSWq1WVvdLGioxTeKvHGa2d+/eBx54YMeOHY3GeIzRyJdHN0VVfgptkZQfWLzkD6iqtVrH0qVL77nnnvXr108qo1IflTRU4sqDmeV/nzx5Yt++fQ899NDOnTuzkIEgAFBE8bKuhMmQrVA0pOjLfKgX5CMVFV24aNEdt9++Zs2aGTMGkyQpaaikoRJXGFqt1t69e5988slnn91x6NChNE0n+5uLGz9AKpoAzVS1r68vTdPxiYm8rRE/+JWVtz+2v4v3bvas2StXrr7qqqtWrVrV0dFR/mZLGipxWUdeJCEMIWx95pkHvv71vXv3pq2UtB/ochGJZjpFhoQQfJJs3LjxnrvvXrx48abNmz7y4Y9Eixe1vpYkyfwFC+6+665rr7uuo14/3zarFEolDZW4xDREMsuyoaGhnc/u+O53v7t37948SvrB2wLzCA6EqnZ2ds6dO3fd+nUbr9qoqs8999ymTZu2bds2MTHxysZlFwjT8ny26vz5826++ZZ1a9cPDg7W6/WShkoaKnFZ0FAIYceOHU8++eS2bduODx0Lr1z7DwGLMUmSZcuXXbXhquXLl1drtQP792/duvXgc88NDQ3FEPJE9UXlgMkoLf+JVHXGjMHly5dv3LhxzZo13d3dJQ2VNFTi1YaZ5R1AJHfu3Pn5z39+7969WZaJCGAv/ZCzqJoXrdNF4jnE0NnZdcvNN7/hDW8YnDXr4IEDDzzwwFNPPdVsNiep51INYeRVPufc4ODgXXfddccdd+TKqBziL2moxKsngtI03bFjxze/9eC2rVvTLMtL5i9blRB5ZyMEqNVqMwcHZw3O3rBhw6JFixqNxq5duzZtemL//n2TkmOyvYiXbl6+uIxFVGTGjBm33nr7LbfcMmvWrFIWlTRU4lVSQ0899dRHP/rR4eGhnA9yBnkZwY5Mecw5c+Zcc801a9eunTVr9vj4xBNPPPHss88+//zzo6OjAEXOJR1eUs+Oqd+dQOIr119//bvf/e7Ozs7yCrn8UXpRTwecOHFiZGQkFyS0lxAZnanTCxQCQeIrq1evuffee1euXCkiR44c+fznP//oo4/EGEUEMtmleC7pXFrVIVNuKSRN0+PHj2dZVl4bJQ2VeFVOoMjGjRsPHjz41FObR0ZHQRbkcrYJ2QsoCAFEnQ7OHFy4cMHKVas2rN9Qr3ccOnToq1/96pYtW3bt2iUCSBHyXO7xKSCE827lyhVvectbenp6ysujDMpKvEppEZLNZnPfvn2PPfbYI4880mo1J02jv//X1mq1tWvXX3PNNYsWLRoYGJiYmNi0adOWLU8dOnxodHTUYjyr8iXtkO+yfVNN/JLFS+68665VK1f39fU558rcUElDJV5tPgJw/PjxL33pS08++eT4+LhZwJSBL2mrJ+/9jBkzbr75lttuv623py9N00OHDj300EOPP/54o9GYDLuuiJ8XAoFUKpX58+ffe++9V199daVSUS1lfklDJS7hsQTM7PDhw5s2bXrmmS0HDh5stVo5AXnv581bsGzZsjVr1qxcuTLGePDgwT17du/YsfPgwQNpmpKEXDHu0ARVdGDGjNWr1lx33XWrV6+u1WqTgWp5PZQ0VOJS0lAuf2KMp0dO7tyx81vf/taJEydWLF9x3XXXLV68tF6vHzx4cNOmTbt27RoeHp6YGDOzdqMQrxwWQl9//x23337ttdfOmjWnWq1OpZ6ShkoaKnF5cVO+V6NWqw0NDT3++KPfffjhY88/j/Nm0C5j1XNm15CIJEl1xowZN9100+te97re3t6SdKYByhB6ur/PiDjnOjs7m83m+9///g0b1nV1dQ4d1xjjlUKj7UYB6eruXrlixcaN16xbty7fBFuipKESV0yYliPG+CM/8lbv3e7dex544Gu7du0OIVz20w4KoKOj88Ybb7z11lvnzJnT0dFRyp+ShkpcSVJoqqZQVVXt6em97rrrNmzYsHXr1gcffPDAgX1jY2O5LxoBlcsoTvdJMtA/Y/369Xfffff8+fPLX2hJQyWueEry3k9STJIkV1999dq1a/fs2fXM1me2bNly+PAR5LnqywDOuZUrV1511VUbN14zODjonCt/gyUNlZgOsii3wZ/6wUqlsmbNmhUrV950400f/OAHjxw5wstjnfONN934rne+q6OzQ6W8REsaKjEtkAdlxpAHX5PEJCKAS7zr7e2v1eq41ByUazFRmTU4q7u7t1zf+hpB6cbymiIjFBOql/91qYqyEl/SUIlpFpRNLkd8oezPZXXmibKdraShEtMuKMuJ5vuHOZc8Py1tlCxU0lCJaSqIALtsamElSpQ09FqkIbT3JpYoUdJQiVcbIWT7D+zLQnbowN7RiWYKgAEWSRgNGQKUiKqmLLPCJUoaKnER8PjjT/z1Bz84Pjb+ic9++guf+bQzgyComgC0RgJDBhJ0QUsaKlHSUImLgPvuu+/Y8eNmNjEy9tVvP3B0y3bQ+SAScOx0+PyjjzlCjWpKKaO2Eq82yvbF1wROnhzON44ZxJvtOnUsO73okzu3fGPntm8ePeyysHPVb4iJQKJmzpJL+2xzW1tcusVnJUoaKvHKY/HixTt37gAAEV+pLFm26lNbtvzWt79YbbqWaqXqE2PTkdAklnW0EmVQVuIVlBXt9pu77767UqmAdCa3XnVNz6zZf73tUUmrKStAFIvVEEwYVO1SXxKFvzSEeFHNQyVrljRU4rJiHRbnkoBZRDBkzRaOjY2LE4gqopHSVY+w8dFAZPQR1MyQOakEIZqeFxDIcvafcyng7GbDc+iDL4UvHEJUOlMftYHsy9t2PXJg/3i0SJJGGowECBIGEkSZyiqDshKXFfLFhwHGVF0l+GdPnPrT7315+ezeO60mrZB5SQJazaaAifcFYwgsRgq+T6WeF9JZkptXA0Lk9ohmBKiq5JkhVWGe4ike5vtP8BPOmSijiNVM/nr7I4/tGfqhlct++9bbls/sNnEm6iKgAhEKCDoYUNqAlDRU4jIRQwIiKhihJ0bCX2155M8e/sbpsdZ/ufeNwxJGPfuaGHecmJhwIhXvZHJ4Q860NQrP5iOZQkIC53zivU+SxPvOzs658+bOmT1n5syZAwMzenp6e3p6qtWq9x5AlmWNRmNsbGxkZOTEiRNDQ0OHDx86dPhQq9nMsizLshDC+f3cYi5LGF0cS6JG72P10OjJv9r82Meeffp3b7z75669dnYng1OBOsBynzYrNX1JQyUuH1gUyEgLn9z61Ac2P7Lp4CGjQiu9rl47ParRml4EGBs5rRYr3oOAFpIo0vKkDFlsZyUIQiC1Wm3m4MyZM2bOmDFjcHBwxswZA/39PT09tWo1xmjGGGOMZmYT4+MT4+NTn1ElSWYNDs6ZPVtEnFPv3fj4+PDw8LFjx44ePXr4yNEjR48MnxjOR0zyUTIlKiZKMEEHHH1ATEZH4+88+NXP73zyvdff+Pb163oqNZg5UUCCuvIiLmmoxOWCTNzmI8d+5xtf/M6Bg61mgBcEAOa7K+nJltIUYpC01RJaxWkRWpFQBLN86kwEhJBcsGDh6tWrV61aNW/u3HqtXqlUCGZZlrZarVbz9PDJU8acqox2JnKTsxadFVyWexupqIiodtU7Bteuu+7qa6iu0WwePXp006ZNTzzxxNjYWPSsRiq0lrkAxioQfSVa5iI9Hj506MljQ594ZvOf3Pnj6+fPaDmrA/5K2mlUoqShKz3mamdVrEgVt8MnISinWs2P7dj6R/d/cf9EgCQQ50MWRDWi17vMMoCpihrTVsuY54YUzJmDUaS/ry+NYfWS5avXrl29enVnV5eZZVnWGJ+YGBs70WjkPml5oqed7smfGYvB2bNTScWgfO77CDAaRRBjyLJGowGIJkl3d/fyZcvWrF79zne+c8uWp77x8LeO7T98qjFBh8RQUQCWVhQmvsUoMhHsq3sOvfH4B//w7jf/1Jp1oSPxOY+i5KKShkpc9IALUeFBGKiiBEExCQqQTxw+8sffffCzO/eENIMImAEI4gCac4N0J4IplRSKhTQN1A6ndB7G7sTdOnNmd9fAz7zr3b6/q4vJWGOs1Wo+f+R0mmYhhKJA1jbXz29MbSp8oQ7DqakfOftrijnbLD09PDx66mSlUqnVautWrb7mmo2HDh/ftW1r/7x+UqriQEUkhPkKEWFGxbFT8Re/fN8X9+z6zze/buOCQW9WKKJ8EoUlJ5U0VOKiaCETaK6BnBlgTfU1SaPofdv3/MZXPr9/ZBwWJ4tXU8mgs1o/MDoqgNFMXaBzmdZVajbxliVr3r1u3dpKV0cNWaW7dWJ0z8iIWDCjtMXPRe1jFoEZm81mq9UaGRnRRHq7Zt59zxvEBXO8pqe34izEIBCDUR1RAZr0zDL77PbNTx/Y80dv+am3rZ6bOZcER50MDEuUNFTilUZ0cHk8pggCAh42NGH//bvfet9jD1orcaxEbU4qj6mo1yqtxgRIqlTNjGix9ebFi//XNVdd3dHj0IhOTzx3yMZaEYieWgxSALCLPEshk+mkfHzD0uzkiePDp0/1dXbUBrp/ZM26Nb09f7tt6/2Hj546Oc4Y0ySASZLRVBBk1+j4T33673/79lt/5ca7+ru0YhHirBwAKWmoxMU6sQYIWkJP9VH3jZ363fu//qldu2Jw8NkLLGEVEPWkkrWauUqKiKlllk68fdmq7OSpcd9wwYvJaKOpmn+PqVnmi3uci/huSpgmUIBm2enTp05NjFYo8yodv7fh+vcsGPvC0cOf2rv9+dHTJpWsIiAhCmPG8OcPPfrs0Mn3v+HN8wY6DeYLzi5xxaDsuLgy4HLFILFiEcRjJ4bf/KG/+dizW9KQAZAIx/BCX9tRq2bNFkDmyeQ0po2JLImZp8A3vQZFUDqyFkTtkl4S9CYQmAk0tVYMToKqLpzd9Ssbln707jf95MLVHhPOMig0CiCIGA/Zx7c9/YaP/NVTR0YzONOsvGBKGirxihzIdmAEEIhAXpiWIF/bvetnPvU3O4cbyKKyoTSqN9F2vajd3iwGiCDWKrVmmkLEGwDXEsnGGrWooNPoKtHqwTozi4qJRHhJ8yqEUCCkwZQSVQNddFk1ZIkl83o6/uB1N/zlnT987awZHZGEQMUbRVqg7DrefM8nPvqtnXvVIkjQipE6wsrJs5KGSrxUGEBhzAOWCADKzMhg7h93b//1+z69Y2gcyCBq8AbNJ63ORFIEBGqAoLdq3VKJrSyoKFVAjfF0q0lxJhREClInQVUIJfXSDmlJVAJQBw3OvJkTKB0lMYWjeegb5g/+8a1v+NWN1/fXBYxBnTDJL+QdQyd+4Suf/vT2vRmEMLEIwtpzJCVKGirxkvJASHNdU0RaUYxg/NgzT/zUJz+6fSS9YNamkgIa4YLSXExM6nO65S/u/rEaY0NDhdJKJHfyabVaqnrF7gFzC+rJe9ev/vSdb716xgAAU4Gp+SxWWntPnn7nxz/70aefCeZBM4kANJbXeUlDJV4qDZlVCUfAIbooQNTKp57e9p/u/4pvVcUAXiAjHZQSvYSKqXYk8UcXz//wXW+9c8bMyBbTjGQ1at5M2Gq1ruRqEkWoDHNm1P/f29/83hXL+hKA0OAlE6FEyu99+b6Pb90GVgREGZNd9igrZZcjotIVdbGYEDT3iR3bfu3rX35+3OCpaFL0/KNlClAA6a26X1u38a3Ll/d47xFGskYzTQlRs7zBL8uy9lZ7XHF0pKSJC058tNkd/M1rr147Z/5fbHni0KkG6KgRbvzghP761z9XFfzk2rUUSx0q5VVVqqESLwmhiMSgMI36ub373/2Zjw6dHIdGKEzcC5TSfRKzno70L+6491+vWDvgSMFIh2OETISoCC7P+0iWZec1Nl85WghKoKdlELQcOtW/Y/6iP7vjnrn9ok4gXi1AcfxU852f++iXdu1uqLrSlaikoRIvFZVi2su84XsHD/7+/Z9j5inUkIIEvUYACmXRM60CUCjXz5v1sbt/7PbBmU1vhArR39Sqq8ZaogSMIEXgnUruHXYFIvVIaM0kCqyeuaZWo8Tru7s+fuePvXHBgirEWNVgEGHqfuvr9z2176CLMQ/NjMW0bYmShkr8SzABMiI+fzr88tfu2zI0DJiJmniQQDDJLTmK2VZQnMU3z5vze7fcsb6rRhigjgKyKUGFb/+RH+3p7QEgqqtXr7r++uvGx8eu0OxQJVoUIRygVDqEKC51nN/h3nf9Le9YthxJNHWQCJVtx07/0tc+d3AiY+7XKAUJlUR0WUHKVcKXJQ0haHpqPPuJj/zDt48ehWaI/pyj45BFOCBxVLr0x+cv+b9uu61HosbY9DUT9RZMABIqg4OzgsWDBw/WarXFCxedPDk8MTHR9kW84icfTKxi1vBSz5IR+D978pt//+xzZjGJzDyBeNO8FZ99z3tm17zCIM4gUk6/Xk5w73vf+8pX4fJD60TQP3jwG5/dscOoko9YnJMiEQUSUNRl71624ldvvKXXWeYYnFdzSlINlNyBY6IxQbK3p6dWrY2OjjYbzck5imkwf6WE0AEa1KqwOwcXOOhTp481TTRC6Y6OjWVZ846FiyqeQi8AxcoB2DIoK3EBsA1E96Wnd/zDpqcCCaS4kE096AGKtN61dOm/33jtfAnCRK3qg/dGAaNMoRhjc6IxOjI6NjqatloySWXT4iRmzkVVZ+pNIWDC965e/vMr10JScxJhQVp/89Rjn9i5XawalYgsd2SXNFTihYNkEQBPDU/8xgOfGWk0AIUoxc5/53YWvYQfX7z4/7zu9u66Al5BZxAwaqDQ2VnznRdcrTE94I2OZmqpYxS46KuV5JfXbnzvqjVOAOdAjDbtd75831PDIwSiN5Q0VNJQiXOVTT7aTpC2b2T8F7746RMTLeb1dXNSrNBQYe7jaoCLXu6Zt+A3r7lFEqtEbSQSNEaNmYtRQcDZa+WkKRmUAqtGCmBKpaLCX7/6pvcsXQnHJK2APDbBX7rv40dPngLIttW/AYayw7GkoRLMG4UMtDTy7x977LGD+0EHCmiAtadchRCxYg/Ziq7O37zhtv4u50wMPjFTigDKfHYMpvE18vqZQCiEmogSAE3ooiQJ/7eNV98zOCerUAn4+MjBQ3+1+QmkMNCk6EGanB8uUdLQazkSMw+NoDk+duj4X296OLVz2+2EDowQUutiuqQj+cBdr19Z1YSx5c/a4lMCQOYQFZ2Zza0kf3j9XSt6ExMVa6bkBzY9ufngMZMswiCGfE2tlvnqkoZe64hiIGS8Ef/zg185NNE8/0wIBJq/d3NmR+03brh1Vb1DREAPqDealkR0BkmEN0RBmoSZ3fJnN71+aW/dxSpox0cnfvvbXx3JQhLFAKgJy06ikoZKmIsKUP/ye9958OBe8AKzGuYBEzGDNH5q+ap7Z88bS1ymSep8Z8qopmX/11mXNU0kc5pEKsKagb5fWL3BVatwAMJ39uz7wHf+GRRQWkKw7KwuaahkIRFn8bGjR/9y8+MIBOMFxiwsQJySt88d/Pk16yvOEosQqwXLXDSxCxf1X6sgaFDSe/OAo8pbFy1727J5LiVoLQ0feGLTw0OHNQiQ28WVQVlJQ6+tE4JiyWD+FkxQrJXxQ5sfPzbSgCiEKLIVdCSEUIBOzZYN9PzX61/flRAQJR3ZfjwRQoyOCWCpCwIAIbcpUlINyny5WVG1ZxHjqeSqoP0HQP4V+QeEQiAKDTTJn25R6yZIGGEUIyxfCGQQoxKOkLbtLEFKsdbeKCF3QwySd1jm7myM8srKOYGY0oIKIc7gEv7m6o3r583xRiR2aHz8Q5sfbxmqeT1RrDwJlxDlW+gloCERmzRKNNAZnh4Z+eRTmxANiSAWJ1gouV2XRpi4epL98vobZvZ0kKlQKGc3QguDF2ShYsnx0bEToyNXzVngkRosOBhoiKICRoXkY65KqGiqydnPz1TSgi4FBiqlEj3yorYIBaQpSApEAYFpFnH89Ohzp4f3jQ7vGxk+Onb6+FijFYsHUciMgYG1A7Numrtww8zBTu9EzVuTakrVKJl3jnTGV86eTDRncEAJCp0x6en6v6+5/edOfe5Epgytz27e/O+uv+OaGf04s3G2xKVBOVP26tOQEVBTCIJQYUzduz/74Y/v2KahYmogHRFVhGAiyMQZouCty+b/4bW3VGuV3AhezmvAEyJKeO4k3vPQF480Rxd3zby2r3NR78C8eudgrdrlXMVpgop3qqpOqKoKqchZVTkjMkM0i6CRWQgkQ7TULLXQiGF0fPx0qzXUaJ6cmDg2Pn58rHF8dGS4MZqGBkQBLURV7kaSr6Mulm4I1Lq6Oq5ZtfaWRUvv6B9c0eFrCkBNxZsIJapdtAsdmarLwp9v3/rfn9kWLAjw9nXrPvoT7/AeQjUxLYODkoZeMzwUgjhPiQKBacSXdh348U9+MMs8RJJomYcPCIkgClQQCW+z4f/2zT+8pq9CemESNVWee2ZI14yNX/3Gg98YGoWYNw2aSjRHehFf8Ukl6TKfOPUqDnAqiXO+2EBfTJ6bMQ0xC9HIYNbKMosxDa00zTKzNAQzAwwWc9N9oQoRCyv9Ymlq/k97eWG+51EAqIgwiV093auWDdZrt/T3vmfeipWdXqQpdECCi2UMJKBCW0I5PBb/7Xfv33GiScD5+OWffNfr16xxUahRpNwrVAZlrxUa0jy0iYiVyEbm/vyfv5kFp1HMWeYIqglzKVHJkHqDhf944+1L+nqIphJBLLezP++R+Y0TJx4ZPwUVwCBRTKkaoAGCVLTJk5UJkIgmpIsUIhMPANbuI7agluV8VOR/8gQUCRPQQ/KMUASMGokIRET4ILnziOUJKChMi1F25jTkTZBQYpqOusCs8dXDdv/EI/9l9so3zxrMNBOJ7qLNWJjA08Z9ZUHd/8aGG37hwQeCVJDK+x956OZlq7oTFZazrpcMpQp99V/yPJMDhSHynw7tfer5I6AzD4FBKJZ7vAOAWISGe2Yu+aFlCx2jxCQoFcYL7QMMsfHQgefHW6jECEpQoQQwE2uJNSENcw0NUaOBICQ4yTygKaQFyf9uAZlp/nkq6czEIiyFpbCWsAlrgCnyUM4UURET0AXVqFokfIuVaG1eImHmo0AYNPg07WkR8KNVbU7o+57b9bfPPX8aNceL1/ZNh5hKRy3QNN4xf8nbliwEQlT53tDJ7+3fS8So5Vkoaeg1lBsSD4DwTILyvmd3HJ9o5ieWUOSz3xJyRdGqxj5XfeeqVU6lQkDyshkoFwilj6TZo88fEZPURwBiDvAQT3EUByigJvmYbB42CUxBBbUoolmedc7jKrF8PxoEdKAHHOEA396cFoAAGBindP8VZbhizSyV5mgO1KARZmpgdz2tOoPWgplDM3PvP7H/bw7ta0Q0XXRkPpzxiqeMNZ8kE3XMfnb91YvrHXBxdHTiCzt2tizqpOwrr9GShl4TRMRiFf3JZvjS008ZJ1MzRTwjRVVfQFzbP3jjgrlCMQGFjkWq4/zHPTDePDRyqvhUEWEYaOcdrvZ/2faQnSSQdnDX/lQ+Utv+c+YB8uepZ8+pn/9drP21MQ8SNTCqr8+doxQpxkktc+wZ9Z86eujTQ8PV4GnmiKgsynKv2IsORbH5TWHLevrvWbIMJKN+dseWkUak2HR1IChpqMS5ELCVD1UifmTz5gPj4xe4jyUQA8WL/9nV63pf3G/p2wcPpOpYsMMlnzPLM9VWFPopajQVnTXTOruS6ITIHF2kj2xV3ZhV/u7I0R3NTFA1WG7FcfEYoQp566JFM2sJktpzMf0fT24u29BLGnotoagFWXMi/dNHv92Occ6+iyhASLxz7qLb5sxRvqil7E+PnIY6gkIFhfICVcDYVuAAACAASURBVKdzvM5YbFg+6w5F2avtnMaX559fCLxC5FF0oLc2Z5aoN1UpUvEqAkMK4fEQ/uTg1jF6ARwtykXkUQGv6u1504LFTEzg//LRb482QtGPySnPvkRJQ9P1Na8ao+Cru/ccHBuB8QJxgBigdQn/YcMNVuGL/DXtOTkMAhLbXPPiztGZNsizz+k5fHVBo8bv594o+dNmHh+Ks3pX35Il5pwao8AoSUSqMJggq8ZWJYR/Hmt87vRhF+V0Vauh2CR9UaSaEA7/+4YbOsMY03Dk5OhX9uyJAqiglEUlDU1/MSSApK0Q/nHbNoiH2Pl8IYwwuWP+ohXdiYuIL66fJarCJhM08lKiDHlRVDX17pMfKdyuZern2hykbT3lXFd357KlmTlvMI3KCKCRhHpmGiVAIjQTp1nXPw0dGobpefmoVzxiNPELvf/JpStgMap8ZuszzZjFdtdTiZKGpvcrTgh3nxrbdOyYhHhBFnBm1Yq/d/5iVzFHfZEmHvPqM6AtbwnhhVl01aKJ+fsoIHmBQOpMH6JM/neKj+xU0lGeYR6BKlTzolwxLibez5zVsXghqu3Nqfm6NJgSBE2oBlJAUrIDrXiwFerBWt70IgZGBCRzfPuiZT3VKgRPHDu859SwMhZ5dyssMUuUNDQNQTDCbXv+6KGRYeIFaALJnM7qtXNmKwV03l7Uabx5sE+oQQmYUlzM2nkfvlT10+aps5+eTLl1TrymAlGhqJnQgLyL0aFa6VyysHvBHHoPTpYDpZh3tbwvkqDBImnKeLKZPjc+bnnjwEVTJgJxNAoW9PZdPXMGgjs0cnrnkeNB1PIB/dIIraShaR6URf/dA/vG0laRwTkv9giqdwzOWVxPCFDci4xN3rJgdrWSVIKDGoCo1iYRefGn88xMxpkDK2f9nSewp95AviYkESgEAhEqXC3pn9G5dAn7ehqSD9m32wAwGYaS7SH83G/bRWsS+1oNE3V2UdVIYRfbVa3eNWOWS5KxLDx04DmYmJoUGbuSiEoamr56yGXyrf17IAK+AMVIeMfSNR4ZoVHtRe7xWTIw8PrZc1PvYEnUCFTQ7iF6EaeyHXzJlBBscvK8YBxAtJiqzz+o0m4MIIQmNBFzws6OjmWLawvno94hEEc5U3bjGasQYb5FlTQWD2AxGg6nTcudJi/eAqO8NUkokHvmzXU+gO7rB/cnqQgiqM5QthCVNDRtIbDdY82njw3lPdFTpMEZXNXft6Gv38SbOEF4kVnTvqT6b9euX9DroNEHvFgjNDm7WCZTPyhTbutZkVqeCRJFvtTIGRgc1fmOyuDcrlXLQm9nyzmhOlOX92pb238oF0VWBIwCIw1mJCOCMxnNAgCIycUrWgmjQChCLOrpvnVwQIhnjj+/Z6zhyJKAShqa7q+44R93bsqKvG4+J3/uYXvH8lXUqJYAWrH0Re72UwvrZ/T+6fU33jY4aL4CTJxNLefJnwvnfabeAVPiLynMOs7+WhFNkmRJT9/1y5b1z5tTXbowmTObJrWAWiTACMS25FPmU2Z5dJY36ZBWbJanMai5CJgIYMKL2TkEpSSmShHwf1m+mkLL7B92PwFTE0QtU9SvHsoJ+1clDJsihUyST+540kWJLkquBoRiShdhACozErtzzhwRUkQZo/gXaZRs4gTxppkz/+y21314366/fubRVqNq+XCYUfIcjLazP7R8ql5NBNLu2iNAyXfn5BkbBUxBD+TjrBRIBezpriyfNfP6gflrZ89dPdBzPPi/37Vr59ix1PlqJhAN+ZfCZFJDUUgRgrkrSNHZlP9DiAmByMhYT6weWw3f5dC6SDV7AZKoQTX4VMmbZq+cVX/0WCP7/NM7fv/mWxUxN5AsRVFJQ9MpEDtz89jExI6D+w01FAOcBKhEzEMBs5UzZ/ZUqzl9SVE1f1Fn0Zs2PUMSB6G/tuKqn1uw5hOHdn7v4N69rcZwK7ZaCIEaQyRFBHAgcwKEEHR5uQoEEw+RDpGasMP7ikrN25z6wOLunmX9A4v6+hcNzJpT6amAqWudaoUHhkY+vGPzkeYok2pnqt7Q8jQR4xQVx6nxUOFAz+JnbHMTABVPW5B0RKUzqPAitfEQMDVCkygAukVunjP/C3v37jxw8Oh4Y25n1YDSfKikoemjg84+irLlyJFmIBUgrBAExawDhE64cWBmh0/O/doXgaCWmAAuaKA0errx3tUrf3rFiqGxiedGRo9kzedbE2Pj6VjaajCOhawZAwUV0Q6fVCmd6jp9pSPxXdVKVyXpSVxP4vtq1e5qrT+p1yo1A7xBJAYxkbHM5PHnT39o//6HTw6nEsVXcj3X8jRBnv/NFz2qKs/mE8nr9BC071WkxA1e4oqknjlJQrioG56DUEkfNThzsXXXnLlf2Ld3gtxy9OjcpctYpitKGpqehERSZdPRw+aSfP0GRXMvDYPm96gnbl1PX74A8aWewaghiQo4SNVbrEYDmDh29taX9VSdkeCpxMNECBfFRTgKhKY0ZVRQqSK14PLeHhTmIMw8my50ppI5BKLDcJrJX+zY/ZnD+yxNHaQOFWpQND2iohapFANEhKSZyZmC2qSJf+GpNHUO14l0d7gF9Q6Ko1gUXLz1awI4EiJBFYmt6uka7Og4Pj6x+cjRNy1dXhghlFFZSUPTKzlEE0Rwx9Bx0ENNLHJqgzJETDq8rOjpfnljlZWYe/0IgCiu5TSoCURNQG06aTnpS1uEWG7MqpLHJo7iwGpuIgSY5kb4AqhBzInQqiHLXEwiWmZfPnHy77bt2DJxmq7qJBENQaEGR1QiEfM6u+QchDYZIa+/T3ZpF2GZCVFYmwg0coGrze6sggrJ3d0uFg8pVWmpg1KCcmatNr9eP95obh8aSgUVa3dQlihp6MrPCuUde0ogCsaazedOnQYcGJWIImj31ADqzLqq1Xk9PZCX80Zs8FEJRJ87IwoSQ1CaUswSgyOiKIVFHFTkbvLsk1hOHhA1FiIFEYCbzGlbsmls/GO7dz10/MhIiM5c/lBC7yNNLQgcIGTIfyZSZLJCX6wbmaQfTvVuU4gIjaRdNzC7P0kM9GamWlDjRfjNECoIUVnPNHXaX63P6+zYPHTiuVMnR9I40zH6Mj1U0tB00UGZaCIUk0TiSDM9lgUgAyWKB1IAPvqQtGAJqVcNdPeqf5k7RMVcO+ubH3trBzWTpW+e0R6TokCmajbAKAZ2RJBoVQoGscy6Pn3oub/c9sRQyDxEcj0FCmlCEZEzWkddwTxtJ1iceVYF4xoAZD52pM4gp6uoN2PFXGdt4t8sXK7S9FFbWvEMdrGqVRTETCWJEhRKitP1vV1fYf1IbLTGR1sDfVWWY64lDU0XTFX2w+Pjp8/zOYtSaKbobcPAHF7aS59O4IMbd6ZqlUxjsLj11MRHdj/+4OFDZLUqSidnQik9t5D3L+56mWxKdLEaJZqGrpYoVR1/ZcPNnV5SJ0l0rshev0ovhwCLewbM7Rkba5yYGJ810FdeuiUNTZuoLE8w5B0zOJW1xlrN8w5+PsoAunh9/2zDJa3SCC03mxWjxLGYfGz79i/s330ga0KqjmIKKj3b68imFt+L85yPgRAicladvt2ezEn1hlSjN6p5c/Ge2bN+rH+OaAaKQR1gchG9Ps7Hqt4BSDbRkBNZ6mBlc29JQ9OIiNoVIiFOZmEsTS8QIORO+MxWd/dTLqXtFsWEUa0CS54eGf7thx44nLkooqxED1MTmo9C9YXyMUKkqHy1Z1VFRFCMi01O7+ZukMwbhfJ7SlaJkiFJRVZ0VH5pxcoOn6WKavAmEosX5dXD/I7ORLKxVIdjWnrCljQ0nVJD7d2BgEJOTEw0LJ5/JyGoWNjV2+Ekg13C/l0xNUmemxj59O7dn96//0QKdaZUSKxGyXWaod1kXYyp50zUzkPjLHHU7r/klHCs+KcSQstVqiHO6sLvrbt+RUdXw0dv+bxslCKiffXooOZkZU/v9qHxU2MTQFmvL2loutFQoQNOj09c+E4QCJf2D0BjO798ad6Nm4j37332o9t3bh9rGqUqQpKOagiKKOLolGKkFM3PYoJJ59QiIjv7ubeNhjgpD/P8USaJRp3XW/s/rl53Q19noPdRk4hmgsTMGzN18qr+suLqwdlbT+wdHZugsDSjLmlomkDzIIReiYhsqNW8wOXtKEFAXZKgKT5huIhxGVUJiJmYgHl3MwmhyzQ5ErIPfu+7nzt0GKSIqGjMS2J5wzfgo0CZD2OwIEvTvBzXdvFoE+/UNUT51jLxkYnF6KwpqMTE6OfX+Tsbrrq7s39C4BkMCA7eQEhQkVeRCQwQuBWuBuWR0JTUrFKqoZKGpp0kEtWJZpMXysfkYmF2b7+TV3I51/kIzpzltXxHiAJR6MDTjeaX9m/7yLZthybS3ICkmK6nUEiDaHsGlXljYtH7k6sGOUu+FVvWKOd0BmRRtJk4ofMxZC5cO9D5H9Zef3Vv16kkVkPxvC5ZCg9QYMHADJATzSZcmZ8uaWjaQM6KzJoXyE+fCV3mdfYW42UXUZ2JiTmiEvMFhqhGfezY0P/zzKPbjg83golonnDG5Pr6PPwyQjVPYhXEQ23bJUVIYRstcqY7aJKD8hvGBMgqwchqnXzD/Nm/vGb9zK6qs9Dd0tRJ5ujtkgkQgSjj4p4+CJppVk7XlzQ0PSWRCVohvKBaEg76Os4aS3/lUUs1cxY1Zk4ZOT6e/s9nd3zgmccR6kJ13igRcDopaQpaNBGX65sifClqalpwD8/k4nMmMhapaWmP0wlULIkau1zjp5et/MWVV3tnsCh0TadRUY3RLun8BIWzqzXQWiFGRb44trxySxqaTiEZCMnswqMJJgDYrZ5idjE9kFPP4CSJfjy1bxza9z+3bd50fNRTMt/0dEpHc1MH3YjJvNBZfTRFYkhMqEXG+ZxWQ55xMMoHO0yaqsm13f3/evXSO+YOUmKgg5iySHcLL6UNPYEo7FaFIIskVMpaWUlD04iGJlfFi02pbZ9zBiCsihOI0dxFexNuuaw7+AOt8T/5zoMPHx6aaKDqsuBcknpRgUZBIJLcJE3OjIFR0DYKEpEi7VMIH+GkMdJZs2Nn/DvyeNCSty1e8N7VK+fXOj0TiS1TU8a8DcBFn6mTok5/qdQQqqIQROQbb8tSWUlD00UKOQggUZAEmL/QsCQVAjHLEoWIe+XegfOOwSRqphCKo7DV+vC+Xf/fN78zHAmFKCJyg7KMcMI8URthIlBKyNPVpDgnZiZQ6CTpCKLlVTKCDhD61CkgVTMAQdRAaqzHMKun/5eWLL53xQpndCSRmVMAES4nMtNwqXPCdJY4McCrhkoUc2WauqSh6cdIgqpzr+puYqsIYtObi0idHj518u/++bGv7do+DPVwnhKFjnkUJjTmUVFR9sqDrHx7hcJiFFWKwTTfscFcL1mRHQoijlYNljo0PJ1BzBK6Tld/0+I5P71k4ZL+PuFlPR/BdqdBzSVlNFbS0DREnl7p9JVXszPRG4IDQWqy59Cxf/+FDx1uVGCseKNQRZMoqacw3/McJSpVJfe9Z264IyJkNHEKowiIKKrSJivCRERNVECxKBSTeqYmRsXsbv/7G6+/dmZ3XRyJtrvQ5ftGQQHATu+LboOSjEoammYkBJWepPL9jgHJvFD2Cl391BZVKsF/d9eeP/j6F58/HdW1LBEXxVOD9xPeeQsijlARUAyWD4UpBMIIFVJUQIu5LZCKwAgxUWknppk5S0yUSFXqUaOgv1a/d/7cX1qzuqvuhD4T8capph/FKNrl9CsyFCNw3UnNBOWmoJKGphX/FBZfYj21Ol744jZOmqW+Mmg5uOgf3L7zv/3Tlw+OjItWgJBkStWJRCjRBUKVGmGEKKTIS0PJfAQ1H0cVEYBqgIL5DSAKVHJZ5ANNxNE5WCNp/tCcpe9csmzDnHn1SA1p6jNvFTljO40pWxkvL3UULILordYNcGWlrKShaZQTyvfgkEBPveP7iIAYwis7TVYLla9t3/r7n/nHE0ZRX00b9El0SvikBadRNKYuARRiLFaSEfleIlVS8+1kxROKhMBUxdo2/gZKYSJpilRtfWfPf7rutg0DdZ/As5m66FjRmFDsbM8OuTx/U2YGoLujMyImpdFHSUPTBdHyuQBKkDC3WlOInUM0Uuil0waHaEK8LA9mCpzBBBHmKWp87Ojxv7r/S6cbLa8VEcu8OAtAFAaqBipMRYJQoSKiEIEqaZL/LYrcVVFy6w4FTcwoKqKFpbWJeW+qizrqP7xo/k+uWj2rWmMumkBPB+R1wnOV32XIQQoOZS1IMtjha4yEK7VQSUPTJyybvJp7OuodlcpYq3XuCQAAOdFsmLFtTf1yDhIACr0poAfT0T/9+Ee3Hz0SksRZzCmHokJHI50TEkrkWSEKtN3TlDvYi1AI1bx6JirMt4apUKI5S4IGh8xbP/gTK9b+qyXL1vUPUEI+1EHwyjvD5NGJiY5K0levT46nlChpaBqEZHndKR9t0J5qped8GkI+SSX7R0chhLxsI3YFIkExaYr8t498aPNzB4N3iBSGPOYiPByhDiScEyPUqAKq0BGAGkWUQnGiApucanVQgYAmCaMP2vB1F2R5Z+W/vu71q2f0Uq2lWS0TipjYlagjBHz29GhPtdJbqZYUVNLQtIIBjhSIAn21pK9aOzw6eiEp4w5O5G5bL7OHOlcgjggiX3nkn7+7dQejekKUImIOiO0QzBUOraJmVDERJdREnVAoAhNR0vIwjRSlRqPk5veZuAgsquJNK5e/d8MNXRWhknC1ICaSOfO0ycHXK4iFFNw50eyrVgcq9bx0WKKkoekRk4kBrj2f3l+v9tfr54dtFMLkSGNCROzl5m8FCIJqxPMTY59/9OFGSpGgFKiaU0LVgHxVNFgEHRTQ5ct5xClyH2yRdn6a1HyFkZEipgIopOLdTUuX/PzGjVfP6BOXZVLx9PVAAccrVMKZXolySMADE82+em2gVidewcaJEiUNXSaXOEGgt17v6+yaQj+TSR0Csn/oGKd86OUoL6ULODR07NFdOxB9TDJQQTPzoCgYnVFN6HK7jnwnoKkiZ0slTCBCRxFSFYY8KFMViCmlo1J97823/uz6NeoSoYhZHTFzYbSqjqwHZOqCeIVdhnnofyk1xO2HDl21fElP8VZRFuxLGpouSACIh0Dg6s6tntH/QCatBJAAViGRYhoTk3CsaUNNGajZy/NgFloSEZE8/Ozu0ApiUUVzf1a1CIWJCRQGUQrzZj0hoSZUFRKqgFDFoCLmTChqaiIi0dXr/rYli957ww0bZs6mtlNagghVajUCQKZ5jiq8yiomCr2pUCcSHDn2/KKBWQoRWFQI4douAd+fhYYDjqXZ2hndScVJMPMlB71KKDsjXm1cNXNOq9qeum87xFu+yUJk26njzvDybJBNQEhUPP7UkyQIg5G5PyINFmFkjDCjBZoxWv4RM6NFxogYaUFjlqSZyzLGSIsaDBEDdf7W6+/8/Te88aqZcy6/7JtG+CgAwolTE7/ztfvZXhOCF60tBdg/etok2zhjboZCGpYo1dD0xE3zFkBSoKoEYCbMc8F5pfzx4WP3DM6xl0VDFAilKXji6aclqUIAGExNTEQoBgWohJH5tJiy8NWxfMo//y9Fo5qYKiPUEu/uXrz0d3/0bYNVCZIFNUAuqyPqDAKJjpnj/Xu2PX3wVBqyukvkpSSZhfLsyEj06Y1zFnlYWbAvaWg6Y9lA39yOjiMj0SAO1jZ9zaMw3XJiuCVnNOpZiwjzYdK2veGFUhtQyM79+6ITGKn5BEkUKjTf7GMQiomoIpIKqIhp3idEpVAj1JzUUo3OzHFV7+BP3HTzv7pufa9Tg0StALzgsFXhfC9T/3uO49CUn+S8j0x1YXox7FH4rpEikrlYCVZrYXtr4qvbn2l4TrSa1Q6vuT1AO++Dc3NyMvmq5hHmrtOjczqqS2YMqEUIopQ77EsamqaoJnjzkrX/46mniy4fSF4my801Dp4eGQ6tmUlyzjux5It62ifqgkykgBKHjx8LIs4QbbLaY1I41COv0gNGEcm3syqZz3BQqXBkEkgnFcWdV234xbvetLS3j0mspUgVaiIX6iiYJJ0LuZjwxXzk7C8UtvNW0l7zdu73nPJqRNFmYicz/tFXv77luePwMZ/JmLyXXfi7T7pDCoBxCwdGR9+0eFW1ApAwlCRU5oamLQzxbdfe3LaFxWQeKD9uY6144OTQeScmX7x85pDzBY47CeZeZ0YANObpIZrlrqyksVioQZqRkWYwAy0f1ACNPvZ0Vv7jD7/tj3/oHat7u+hCpZWMewYX8ibpM7tDeMYVQC6cb3mhP+0nfGFZx6m3ycLYkW1b66lETMA1sevosZ/55Ae/tnt/k5VqFn3iX+hVmqrditcWADDcmDgyOvquq25GQdslC5VqaDojed2cWQPdtROjDXMCEnRQoylgIyHdOTp+zSw4iglMrRIZpBhuEnlB/YD28tcl/TODWoViAkfJvR3bHJa7t1q+3llEQdIZoKSAcERfX/dbrrvq7TfetmJwpomlIkpJvQlF6PJHibBiSf2Z9RsCaNEAdcZDgFMpUilTdrqSgiKRDCCfW2vbReaf4FmuIET+CMwbtE3MBGiJ7j5y9IEd2z759I7DzRHQi0nmXLdPAPs+HYgiYhBFUEuipiZ4fjxrOt4+d5EyingoYqmHShqarnCGjlrl1oVLvrj1GZo/k6wgINo023HqlMUQKs6ZCh1gghfb0khwwcL5SWxLoWKJfJ54KapnUGU7GyVAElzqpZpRtXn7zdf8u3t+aPHAYI/zkZEqzrwjhXkHdeEULXmDIjT/CEWQT9SiqC45woS5rQfP6L5Jj/mCYJKoxY9eOM1CzecxVNTi7rUgJgiaizxTQE1FfBC3ef+BT25+9NsH9hxNxxErYpYgSz0X9nc79y+YBQlze1sERSXKeE13nBpaO2tu0uHzHwT5lsiyb6ikoekJGpzeuXDR/dufzqw9b1/kbWjiN58YbqShnjhHgs7A3Kz1X3zg/NRXK37pjMHnjg2LUQRQGC3PehfNSEZou56taGnqYzLRWX/LTXf+m9te19VZaVmYoCWJUixzFgBQJylGAVPLhMLJlYraljmFX5FJnkU6E5sBCCImEE5arSJ1dmauFwJAEfKj7wg1QKTlQ2JS/f/be9MAu6rrTPRba59zh6pbo6pUqtJUmgc0IwSIGYwZg7ExOI6xXxI7ScexEyedHtxJd+h2ku5+cZy8dl7H7cTpl+A4wbEfmMEIsJnBCAQSElKheUJSSSrVPNx7z9lr9Y997q1bgwZGY7M/JFF17pnv2d9Za+21vmVJFANxsa840tMvT+zveKhjy57jJ6AZo6HhgImFpRgaGL109gKcQ5ybFQSKGUpIF8Knjh+6/ry1pQaS5DIoPA15Gvo5BQHAurbW5lz10f4IpWbSSk53FXv7+g4UiqtSGSUhaMxGz61fBZMCyoSLFi/7lxNPMhuoJMqtKuTe/i5Qrc44AkSZJJ7SpDPbH4jiHz771Ix0dkYu1ZSrnl5VPSNT1ZaqnlqVmVIVZjOZkMioOqnUgAItyXmU9IhIoI5mFCQsNEoxo5fOFS07yOmpKUjBSiBI0ruEVCHgqBgdGxw63tt7qKdnf0/v/u5TB08cP9DXXYxiBhtKWSIbCEhFHVUGUL6kZc7Z3wWORpUIKBrkB+OD+eF1bW1ceT3+WfU09HMLJgaWTmmak6s/OnACEIYIoASGVZURKw8c2b960drYDBtlRWjOsUw0eXnLxctXfffJJ4iTdkSlkE0ps0ghrgyfjShJ88xo/vS0ptgWxUYHZejgYBWhO1BJMUzIHFDIVEtmZq5ueiY3rSrXVlPVUmXqq6sbM9maMBWKKjmRJCIVTqTQ2PU+LEd5jPMR3RmQUSDQGKJKZIEIGBwaOjIwcmKgb3/XiQO9p/ac6Ozs7+1ViYpxXIht5BxJQ6IahpZASgag2MaB2yeTMIW6Yn7budwqZTWWWFQZ9x/uaMo2LJ0yxcAi0eL2RORp6OfZKVMDaq7OXbpo8fPHjmsSwyhPHitAD+/f83sLVhnjwhTKQvYciIhK3bXmtLW1TZt6+GSX6/hXbkdYaitP7HZMzNNb4znzQVQIGREIKYgFR6qImCJVxIKYIXyS4r39x0HHAIEAMFANVLLGVKVTtWGYC4KqMJU1Js1cFYbVTCmnllbqZC+Q2EokcRzHI/lCvlAYiOOhfLF/ZLg/n+8bGi5GRSCCCJShBsoQDTUSglAS3yZAjIEm4WPLCiajxrIBWWNl7YzZM4yeSy2JAAoGIY7j7x3adePyy5pzVUA0vuG3h6ehn097CFCmO85b+ldPPTGkgZBALQCh0PFR50D87IkDH5reHhsxYvXcqu5dwiKLtDTUrp2z4OCpUxDLYBBZECmMkpIIOKUcpwxmt+dnz0zUpmM7Kvaq5Wkut0gSfiNJJsFcfjYhBg2IHRgZOT4yAiRZArAxoBCXlS0QgXXxcYEIRCECsVBnlWnyc0LHQSnLR5yrFlXmlDjlWSqlLnJi2FiT6IrYlF4+fV4xNGclbXKFviSkvK27a/8QPnneQiIAobs+8tbQezsiPN5bY4gYihi6uqHl6rnzyy1Rx9o18v19+4uIA1EhxJwky1Ri8qiTAtCqdOrGKy+fAhjLrGSUjYJgY4pVyBiNiIoL5hba21LRu1YEP+kQptIQrwwgT7z6ZPp+Qpw5Wc6jy500LRgkQZyqq6pe0doSnqbxomplloOSkFAkwo8fO3nV7MalzU3+4fQ09MG66yFEAv336z8UpGgyqpJt/fl93b2qynbyBosTiUkgLvZqVNYsWnjrpZcQkyXESTjWeWUsCrS3oW0G4lQxeNvMMknUZdxPNEbWlspLSmUUVOKd8QtL2Uijn1asnCxnt5IasYbWt85ePL2ZwadhbR29b4CShnFwrDi4tbvvPl24CwAAIABJREFUi5dfEYh/Lj0NfcBMIigEumRm82UzZmFiC0FDPQPDz5/oKpAJIXyuI0RLaT1IKz77sdsuXrGMEQslFWOsJKp2alNx3iwTGRDxOzj2TpeyPMb20fGkNubfsZ4QlVKuEz7i0RUSs8jxUbKHbDV9ft0l1YEZMZOz9sTvIDKpjt6TU6qr17TO/JlTR/I05PG2nBWFgEwonE3pJxYuy/CEb0FYKX//G4cHhGMtnHOMwjVRhcsKnFJd80e//MsXLVpk1GrSdN6wIW2bLpRSsqD4TT4AdE7rnCFjh2i0lrTS+Rq1kgggMI1nscrVRumJk4+MBDH/1qWXLp9SQ3KO56lQFFke3LXn+sWLajkDr/nqaegDZQnZRIdVM0KXz507r6Gx9M4XUjdKKSa7vbt3yxtH1JR1W0eH5mmqsVzWMrneowTMqq798md/7dq1F+TSoZJaBUIDTgGhMMA2KY0YU+qlb46JKrMUabJVylEeGk9VVPqIKumpbOZURojKjhhziX3KnMbG8E0rV39m6crYWJAJ40nsGlIC1DqWcuUhZDqOv3EstpfPnRsIxNOQp6EPlDkUuNc9QWAWNNZ9dMkSJBk2NvlGVJQNW/2L1zaNREl5fOL3uPklNw011tFIilpVWVUVMVA0mNMw5T//8me/cNvHp9XVKWA5BCvETWaxUVKuaGR4lt5EfBqfCxOcqfJCrgj0lJYzgRg86lvpKO+UWMbRDTPYlBYykESCQAxDGgBgNeb8tpm/fcnFWZKiCaFQkqR0ZeyfikpfBWnBxn+5Y9svLF62sKHekpcX8jT0gWUkImPM5y+5vC0VgiiwrEHMArCBqBjZPTh4/74DpGISrlBLWs5GxNhANTD+D4kKNBcEn7ryQ9/4gz9cNXMaibDYJA5CHHMQWA0kDjRmFShB+cxn/CZcNxobBKJRQ8ZNeJX6xLpmjSjZO1Qir3H518mGAVkYAmegqQC6pHXqn9/2yenVORsamwTIZOKtiFmgnImMQi1b0viVYycPFOi3LlqXIaeQ65/HnxrMXXfd5e/CT4uD3A+5gGqC6gcP7hFVGAsJADYqamCi8LgdvmJqa00YJkk8bjC6vmdnf8kYJVVWQBuymVsvu3xeS12/oAsmtmxElEQ4FGYxScNEHlUKm5RhJnUHxxJPpazYaFlEZdV9WSFNR6NClUzHSEyhykkxAIZBJCZgDVmpKs23LT/vv3745qkBiK0ARhlQYaGJ71dSwBAoZk0JhiL9n3s77lxz0TUz20ABq43J+Hp6T0MfUCYiIoK21TVuPLz/UG+/a90TWLLGRVHNQL7YWlO9tHFKebyee+eafICUIBS1DEBTinnTp1/ZtuDC5mkjGDk80hcLQ2GEAusSlFUZZ+i3SqfVCKrgHVcUOlZcrMRHNHZrGv9z5bRaOWg9boaeAzUypT5919U3fmLlyroMgREzBcKBQIwIOUNrHCOrwChBSAIbPtfT82p/9x9denF1KgsicMTwCviehj7AsOBchkxEjx48ILEqVFiAECSh1YIxRwZ6b543JzCBUVcXDqWzE5ErX3U+HCkJKGYqMGdDamjK/ELr7I/OWMxGuwpdRSkW2CgbCFjegjVUeVRXs3q6AHqpUxKNrXsdF5x2MSBiOFGkJF+RXJyoLuAbFi366+s/tnBmUypkFSZlSxxaFbIxIRUboUmm542wsAVkgDJ/+tKzd65ae9nMadakGCgSB0I+a/qn9j4+g0Kdx3sDUbAWT41EH7/v/396514l0cBC0oAYq9YEQPSr7XO+uO6CrIUBC8FyZTIRTU4GQGilaEgYRogUSurkma2rLlcS5f5Itvd0vdh1csdA74H+gRMDAwUtGxOuFE0UooRyssFYj0uTRPDkNwGUVUUliQxLOUSM0SVO7xElHSSxiSCkJksIUJVS+NKVpcXTq6svmDPv5vlL1s6elWFr1CoC0kBILMGoKIkQpWITGxesHzWtLCETaz4QFf77jh2b84W7b7tjWjoVGw5gLYzxVWSehj7QNAQn9acbj/Re8/f/cyiyUGFlMWRiskYBTTH9j4vWX9naGhmTjbUQqJEz2kGniUNNWI1AxCIC7Y+0qxAfG8lvPnVs88mjW3u6BgWQgMQoBaXKMlcOJi7cQ1o2kVilNN+vrkrNcY0m2rTilgvUlZ6VlGehifBzaTYLKAmkJY1EisKY29h026KVV8xub23MVRk+g5NbUsUel3xApFCOI6Kdpwb/4yvP/v3Hf2Xd9Kn+2fM05DFKQwoYFRX+yvNP3/XkjzgyBMShwCayPIGOrGya9dWLLphaXRVKZMmM1kpMIlCv5/z1wwhHRmIWAEaUgZgkZVNDEb3W1/Nc17FXu0/sH8rno6ggEolaKxBLGmtSSOF8qIjEIlFNKsWlBRApS2SzTc5MNZnJIhuTqPMZkXRUy7vpM8NcbcK6dPaSGU03L1y9qnVGnBIlqYpFzjGLciwNsUpsbKFI/23L1oXz279y8aUwfprY05DHqAclpAxFzFHnYPFz3/uXR944BCssVhiAgTKQDzj3+aWLPr94HpQJp023m6SJxdhPS+SVjFHLElgXGdGYYyWCBmVvy2mmDRcKncPDh4dG3sjnO0cKXfnhrvxI78hwT7HYWyyMWAG5HACCEsS5crFL0iklOwGwJdtHEt1sMCCwApG04epspi1TPbUmN6umZl5t7aLGxvYpTblUBrCMmKCAAYwtR5Vo8ugTSoL5lbfCncGDhzo3nur66m03zcrWs3fBPA15VIwegXBsEGgxQvDIrv2fuvcf+4tRqogoYDWAJZAGwqm0+btLLl5V32qDiIQqfJCyS3LO3yZRYpuwkDCBBWxZWZGyEjOUiFUDcWqtrn5UGFArBdUh1byVgmhe7MBI/vhI/mS+2JMfPjEyeKo4MhBHg0UtRBpHURRHKioigA2YUhxkjMmGqap0piXU5urqadW56blca3WuNgxTYZANwmoThkSxUUtgJVYhiBAJGVJmtW/hHrPitaHB337hJ39z0/U3zFtCYK9372nIY9xb3CUnClkeMfizR5/8ygsbLNIkLEZJRJmNFcs0LRv8wxXXt1Wn37m+qeQSsFmJhRWIjBgFKSvI9U8r6/wIRAjsbB6wk7GnUpcjTabAlMjEJEJObi2hSdaENZO9ARAmIoEqqZC6RvNELoWSnKpt0UjagpViUoBDUfvmr1yBE8XoDzdtvGbeoi9fc3lGQrD6IjJPQx5jBom65s2JupmeivGb993zvR2vqxqwNVZIEQcCJUjwkdkt/2bluvqQnYo+CEIMMKlU9j4992cgSTsmJP0Vlcs9xMr52qTun4RaSEc1mzWhKpRkpF0znzHhmVJTwjHi1Qp1qoouzO0aOIKSNmQEdfr5QiQgTahQtYI+JrteBUiI0tbmAxOIVRjE8f/YvbMnFXzrpo/kwhAQIWI/Mfa+gY/SvQ9eBUAyJJKYL00J7FeuvHF5awvbAolaQ5YCgIwQmB459Ma9+/eEFpEBKxWISZPIy6QlHWf7I4pRLXsoJJljL3f1ISSCRY6XBBClZA7MLaFkll2h4jZwS12bIE14S0vq/47Pks5lKC1SiJJViPtZoJYQQa2KqqVSd7PKtokyyfXCZQzExJZsDALiDSe6tw2c+i/rr8mZEASbBNc9PA15nAExLZpS858uu7y5yiSNdygAGQXDUp6Dv9nx2mMnj2uEfCDZiCJSYwsozZGdi1Sjnh5n+uzswOmO+RZ3d/rNnWk1cX1VhcYWREIxyasnur/WseX3Lrl6fnNDbCygLgvU4/0Dn0X9foQwW7YLG6c0ZOp/dGhvHIkRKIuSMEiZC6qbjx+fXVe7MJMRFlJ2XSpKjvZbiXtUTqKdeYUzeHflNc/lBM5wxIkfneHoVGrDXW54LwQjxKo7e3q++tqOf3X55Z86bzkZMYALOYl3yTwNeZzdTSMCY+W06aLBs0f2cGQlCbcoi5CaAeEd/Z0XNE1vSgekKFKKk4YUZ5w4S0LIVLaa3rVrOEuYisqlre9soM1dGHGg4aAd+MNXX7lpxbp/t3YdBQhEiZiUIoZCjSciT0MeZxxMiIgCITXxiqmtpwYGNnV1Qg0kQDlyi2Jfgbb39a5omlafYlYp5zFqKXHmdKP0bARCp9lktGS+bHdU7q3yBCptk9MdcVKWpNN9dMYTdkcpU5sCRwpDf/TyprnTZ9+1fn1VihlGmAiJrlwgksiJeLwf3rt+puz9yUMCYgUoVjVHBoZ+47ENj7z6qkVATrhDDSgiMRpgeX3dXcvOX1gfqlSriQExElhSJquTtJw+l6+bznnNc9nVu/6AWSJAhZCWGEpFqjox0vu1bZur66f/9XXXttSnYqSC0tULucCQn7D3NOTxJjES6ye+988PvL6bNZLAQjIgJYmNkIVZOrXmL1etn5ZVQtYqx0EUWrUcmAky7+O+7krHbYwt8zOFQGPRLCgvFESczhT7v7R5U7qx/nu3fjodShGSlsBPxnga8njbKOb3D+a/8OiDP9y5G0QkFmqULcDQEIhXNTT+uxUL59W1ZISUYgFITbnzho51sU4bzUGFLNmbtXpGTSh9d+2gCVHrQIw1kaiBmEPDg3+244W6hplfu/H6+bVpRhpOU8AnTXsa8ni7TprCUny0p/93HvvRD3bsVMQghlgGJDCIgcDOrcr93uLl66c1GXXlV6Kl8MfYpL+3fTLvbdaNm3cb7RdbyagEAiJmQpyO7dbBkf97++aFTbO/+uHrWxurQmtBoTBYfSTI05DH20YMBBZiQLH+ygPf/fvtu4E4KELIEmCNBhYSp1J1/P8sX39hczVI81SVlsLPNTUnkXhSBaJ9Q/KbLz1/zfzFf/uRX8hyAcioUMwIEykVD09DHm93zAmE1YAkOjlU+NPnnvnbl14aElEiEkFpEl6JwoB+c86Sm+bMbg5EYTDOchlnFL15F+xtmEJlx03P5SgVm02+vPQRDdviQ0dP/H97d33ivFX/4bLLGmpSDENQUgKRhRoVkHfKPA15vH0/SEva8kr9xeI/vvbaHz7+cPdgTCSAamAQK9hCjTF87ZSpv7v8/GlBMTIpArEUQQQNlWIkuyIBWWLzlgrW3zMENoiNAFZJY+bQQpjImtjEgQrEFCT6847dm3s7v3T1db+yeFkuE1CiiK8VJObtIU9DHu8CBoGntr3+G088dKS7QCqkI8JhIDY2TNZkbGSmmK8vuXJxYzathYhDJY7ZBhpyIogogWooiM1pVdPKqj346fXwKhrOxOIEtQPLlkmFUjTMlvPG7BoZuuvV14oY/Np1t39k0UIyrnKNveXjacjjPQoXWbYvH37jP/zkmSf27JfIwomBGIDY1ZbWpIOPz5rziZlzmgOOWY2SEhlhgCyLkiXoZLlFE32gn1qKjTXCSiRMykQasSqKpGa4IA8f7fz+kf2LWqd9+Yor1k+bpSZmgIWE2ZdqeBryeE/MBCCAAnFX39DXNm/6+nMbh+M4afpHpXQhshkNZ9ZU/caSpZc0NBJBuCBs2HLakkAjg1AnTxcqmUJv9/GYTKM2IbgzfFRGymI4hFEyItaoERGb6hgc/EbHzm3R4BcvOP9La9ZNra0FSWnmjL22vachj/cMETSEQmEj0AM7O778ow27e/ogbFSsq3dlhkpgKQj51tmzP9M+ZxpMZEQYgZpEFIjkTDGpMY8HnbU+44z8c3ZMIuaPkGAZYlWLxCORve/4kbv37m6oq/nLK66+YemitKRjg8DFfyjp2eqdMk9DHu8JBK4dKywrK0F2nur5q5devHvb1v6RYVIoDKsV12hQ1di4tb7+I9NnXtvcNivkohFLnIqNZRk37mn8XNa5mBdnaOX65oho3IasrGRjo4MRPXW0897Og8fyxU8tX/WFC9ctamwgoaKRVIl2EiKy6uXuPQ15vEdwKmKuWFOhMayMyDPHj/7BEw++eOg4NBfIQGwCZ2awqhg1FM6oNp+c2X7z1BkmkJg1bQMWHjEmMhqKhCKCFLsmP6SkIOjE7oNv5VErMUUyzZ7oBSQtpZVgCaHlyFDEMIpULGKQsvEAUs+e6v7nva/vHx5aNL39L6+8bNXMmVVhYMCuNVElc+lbFjrx8DTk8fZhFSA1lvoL+lcvPP3NrT853GcFRWgMZmhANiDKC4UwtKC6+rOz5i2vr81lSFmysYaWYwotM1EEIGZYUlIyiqQl/CS+2Juo2HBUJuUurYpAuGhcU3k1AsuqYJCEYkm1wOFAMe7ID31n365X+oZacrW/tWr5Fy4+vypdyyV/8q1bXR6ehjzepWCRhCqwRqmotPt45990vP7Aqy/v7x+AGtKS0rxVAtQISBfmplzeNOWSxqkLc1nlSIgCyy41SZiEyCiRqkDL/tpb46BJKcmyKIGUWI2T32fkoQQNjgwWnu/rfvrUsS3dvXNqqz9+3nl3rFi1fGprCig3eU6C6J6IPA15vI+sIQBQdjL2RDGI8iN7+wtf27Tx21teHIryIOE4gOMX0ZTVkRCgIBeaJbma22fMPb+hXoOYlVMxjOu+alhV35G8ocRV0tE+YtAQqiALttDYQIaCml3d/f9yeN9zQ72FYrGazWdXrPj8hVfNqK+qDo2CSUotGj08DXm8L2NFFWOUXIcKa0kIwWsnur6x8flH9+0+MJS3UREkLCwmgDLJiCIEGVDcns5c1dx2YWPDlFS6sSoTsrBGUFIK3gkaUqdPRgRRVUJabMRcUDM4bI+Ibho48czRo/sH+yhMzcpV3zBn7q9fdOmSqU0AUjFgVEkICg3G13d4VvI05PG+sYbUgJyyV6nE3i1WIh4R3nfyxOMH9v5g585nDh2OVKExEENTgJRKRRhAms2Mqqp5uepF1dULs7m5tXU5Mz4iRBU2zrkTEUqzcEIoit09nD84OLCrv2/38NDh4fxgFAchXTZj9q0LF181d878pqlZInW9IonLUWd3puXKFh8e8jTk8TPHVdFIjG2nTv3Ni899b8fWXokRMUhBzFYMkahaTgMCSEhIg1IGM+rrVuYaLqhrmJerzoYKUdYgaYsGqwRSZg2U2HX1QTLLpk4+m4hEFbAF4r1Dw5v7ercO9O/s6RmkPBU1VkZANSa8Y/H5X1q7rL1lWjYIDJeC4uStHU9DHj9fEIVCWUmAw0PREx3bHti3+/VTJw8NDgwVi64VK7QABTQAkasLgQIMqLBocyo7s7amwdimTK4lW11nUlVkmGJQRKXYMykEFCn6rBwbGT6WH+kXOTA80jU45PqZueh2LlM9rbZuWWPjDQvmXb9owYzqjFDojC0qa7B5CvI05PFzhggIRaEqLApi5SGrR3p693Sd2ny88/kjB149fuTYYKQqpWp+l5rEgCRT5KW2iVCX8yMAQCYhrFH3S0t6ZXAc5mgQLK256tVTW9fNmrdm6pRFjU0z6+tNigUIdbSTKvnEH09DHj+3UMQEhrAQ4NThiwICDCtbpXwsHZ2dPzqw84f7dm051jk4YpUIoYVVKCW9nonJFXGVA+KigUBZY5eVSArLLCASJYHaqqrMmpbWqxcsvbZ94eqmliwDxloOCWBYuIY9EzICPDwNefyc8hBISsYJu1/KUrEgCxVEKWWo6Y/t4cHe/Se79p3qfmNo4PDgYPdIsVCUQhyNaMGKiBWokgIMMhyCs8ZkTJANU/XZqmm19W256gWNU+Y3NM6qq6sKeZRkuKQApKNnBXgXzNOQxweHh0ZpB6UgsEABIgsqtWVUQIUBKCkDUNW8jYfjqBBFsdVYpSgiCatQyMYw0sSZMMyEYcYYJggISUUIoAQmUQURQal0AhZcaikvUK4kIx8a8jTk4eHh8V7AFyJ7eHh4GvLw8PA05OHh4eFpyMPDw9OQh4eHh6chDw8PT0MeHh4enoY8PDw8DXl4eHh4GvLw8PA05OHh4eFpyMPDw9OQh4eHh6chDw8PT0MeHh4enoY8PDw8DXl4eHh4GvLw8PA05OHh4eFpyMPDw9OQh4eHh6chDw8PT0MeHh4e7wICfwsSCIQBgF3fNtfB/SwgLbV0ByAEBYwoAMswyV7JM72Hh6ehs0OBiBG6TsoEpVKX0bNtRxRbIgaRMoNiAOR6lQIKKJh841EPj7O+z33X1jIVCcASEwAYRydngYEABCHn3wqUQaWWx6NWlYeHh7eGzpGIDBRgVbYEEAJzNjdOiWKyRMwRUwgmURiNgVABRcxgEH8gqci93lSViCZ+5BZO/OjNHmLcS5SZ35+3wp3n+/P0PA29jyCEGAgBshwbyhOqz/58UYxQA6QEKQs1iA0ICJUhKBqEAlLAfFBpXZWIVLVYLHZ1dY2MjGQymebm5lQq9Q4O7zKXvW/teu9weBo6V7AgYJAQiI5Db/vL/7qxtzDeg4ULGKm6d7kqSNIc/+mHb/3d8y8kjolgEMDimWOH/vaVp6sp/bl1l62ZOq0cb9JRLy2JbtNk3mEpLkUVy94Vk6p0LBqzYPyxxh19/DqnOzkR6ezsfOGFF3bs2OGGIhGlUqlly5ZddNFFjY2Nb9MaIqKenp677767vb39lltuMeZ9yvdE9Mwzz3R0dHzyk5+sra31Y83T0Bl4KBlNkYmj4/lNvf1AduzTpAoLYlKFURMHlgAyedArhw8VVqw1IQCCyIl84Y8fe+TRN45AcHKkePctn8ykoIZIyLI6H83FkCjhAC2NbnJ/lUTBlWNdIAzCaOwbVDFJB1KFknJlVJ0UQsIlCpywlQURgaVEQ5KkbygABREAVZDbjssBeyEiaJlB9TRMpKpbtmx5+umn8/l8e3t7c3NzEARxHB89enTLli179+697rrrFixY4PyUt8ZHRNTX11coFE6cOBHHcRiGb5PX3j2cOHGir68viiI/zjwNndUuAEChpRmNua/e8NH93T1jvTayxI35uKvKpmz4xIF9r3Ueh1AmjWvmzOEsBwKAYNHP6I4LEALh1MjgUCgpY1gBQcAANKEEACQkUGYLYgJB1M3UWQMCGOpGvxKDysN+lI1K5KIggAyNDY0TEtKjyq2KSmTBBCIQASwMUkl2T1CyJI6GmIiUQCIQtwLBMRfFBAKM8zhFSjsbxZEjRx599NF0Ov3Rj3509uzZqVSKiESkWCxu37794Ycf3rBhw5QpU5qamvyz5+FpqOxwqSZDnTiQL6670JCOiwQBUIrImmf3H/nWxscZKQqDzy1b8+mVa5VskUwqUhg7g82nl6+GbskI/9raS6cggEqRKAgAgK2COGY3yQYmMkqBOwM3v68Q48a8EFTASjCKEiehMlnJ/d8AUAhp2bJQKABnHUnZ6VLElOLS+s6iidntQQgkICX3qQqRAIYAZQICBdTRDQxgVBIiJIB5vNum+vrrr0dRtGbNmkWLFpWNFGYOgmDt2rWq+uyzz3Z2dnoa8vA0VDl0mAmWwEQCDUR0QuKhICoAB4+f+tITDw1LFqF+ZsmyP73uVsMC5TxBA4opSCP+rQsu/vTy88HFqqoaCKBIlSJLsYkVQSAcqIIRg5QiUkCYiAUipApmBYkC7qzUQkszbm6SKSEgBiAKVYAYVolLyxUq4qZmlBIiILAow0JZiC0LUCQNlUBKsEQGEcFYgoCNWqbEU1MIoMwgTUhSxbLz1ozRkjNZCktba/v6+lS1ra2NiMb5Sqq6evXqpqamlpaWc4nmluNKZV/sdOuUNy//cIbJqXHHOpejnPk8XTz+fesYehr6maEi935nEFhowqNGElZF+KPHf/zykZOBmBWtU/740qvTaVElAmUUxcTuCJTQN5BnY6uyiFmDUmCGFAGswBw+fqq+PpfJmr7+4Vc7O8VKQyqzeOaMbMoookCktxC9fvRofyHKBjyvrbUxVxMAQRIcV00iSQQlJcRMFhQLH+jsPNbby0StDQ3tLdOYEEADGY0fsYqaOK/hiVPDFMezmmsh0cHhwV1HO43AMNrnzmlKZ6rdmIQAUFJLUYBM/1C0t/NYZ76/Kl21uKW9KcdBydmrtIZEhJmdFxZF0cRhSURBEMydO/cMg5yIRkZGjh07VigUampqWlpagiA4wzh3s2ZDQ0OdnZ1xHGez2dbW1jAMz0wlbocicvLkyb6+PmZuamqqr6+vPNUz7GFkZOTo0aP5fL62tralpcUFpzwTeRp6GwxEICi7QIzCMhtSF6R18RGFjlj7B89s+Jd9r4JSLVX8F1d8aFpLXRjFxTCVEoA0pRaAKH31uWe//PRjaUp967pbPrV2hZRSHAPAInv73d+5d99rU9PZD6+84KFXNvVEsYsZT0uHX7j0qptmzfvG9i0/eOnlTrEIGCL1xnx+4bxfvu7mOXU1gQrAAgBqFBAtGuzsOXXvT577m9d2HRsaECYARmR6Tf3vn7/qo+vWTc9WEdg5YdYEQRzcs3Pbr33/n0wRn7vymlPdPQ91bBsgAwVJ3JJN/e1HP379woVcYphCEc8eOv71F5595MC+vFiyBAhr4UMz2j+3/spfWLAglXYh7dFgMwFz5szZvHnzjh075s+fX54eOqut4djk6NGjL7zwws6dO+M4NsaISC6XW7NmzerVq+vq6iZuJSJHjhx56aWX9uzZY611C6urq9esWbNmzZq6urpJD+ci3Nu2bXvllVd6e3vLlNTW1rZu3bqlS5emUqlJOcVae/DgwY0bN7rDGWOstZlMZsmSJRdccEFLSwszeyZ6UzB33XWXvwsll4IISSTW8ZGSmyQCKRXj6Jsvv/hnTz0bSaohFfy/t37s2oWLQmK4iWICiJSYwBHo3u07Nr5x1KqubWtdP7vdgDnZOwhy5/fvV6bhONp65I28KKgYCsTwUISNBw/cc7Dj6f37B1VJI0IMcF7kuROdJ3oG189tr00R1CSeGVlSeu3kqX917/fv6djbXywIu7wAVTZ9hfzjb3Qe6eq8afEyNsxCQhQIwPj21i3PHTxiKf3KkX3bj3cVSAELCAgFkcunz1k9cyopQ0GCv9j0/O8/+uCrx05EokCn3h8YAAAW60lEQVQMLoJVkT3Q37vhwK78SPGy9nZDZgzFENXX1/f39+/atauzs5OZq6qqKtOF3PAuo/KL2LNnz4MPPnjkyJHzzjvv/PPPX758+fTp04eGhrZt29bV1TVz5sxsdnQGs6enZ8eOHfl8ft++ff39/StWrFi1atXixYubmpp6e3t37tx56tSpWbNmOdNsnD914sSJBx98cOvWrfX19RdccMHKlSsXLlw4derUzs7O7du3d3d3z549OwiCcbypqi+//PIjjzxy6tSpJUuWrF279rzzzmtvb1fV7du3HzhwoKGhoaGhYdx1dXR09PT0rFmzpqqqyo81bw29SRMJLLCGtEjBSwdOfvXJp4bVgvkPLr/640sWQfgtpCaSwrKEMSs0ri6ub5j5R5deW4T+6yfu3dU9OBKn8idHQKa5wXz1khsWNTT/+2c2PHnohHD4g33bP31gWct5i8Jy/S2kKMEn77n79b4BsOSy5muXXfuxZQvzkXz96Z/8946XC0X9zu7dFz7z0m9feTEQWwTEwspGAGKotRLV5TK/e+Eln1q6rCYID5/q6y/Ey+fNZDWkiGB/cvDof3r44SJlJBPPTGf+9SXX3TJ7yXPH9v63J5/cPtzfl8//yYvPNZn0l665YtyMfSqV+shHPpLJZDZt2rRv374gCKZMmdLa2rpw4cL58+efzl3K5/MPPfTQ8PDwnXfeOWvWLDeYVfWiiy56+umnn3rqqZ07d1588cXjtioUCi0tLXfccUeZoVR1/fr1//RP/7Rnz57NmzdfddVV4yI4hULhySefPHTo0NKlS2+66aZ0Ol32p1avXn3vvfdu3749l8tdc80140ybvXv3/vCHP6ypqfn0pz/d2tpaPsO1a9du3779vvvue+CBB774xS++n7MHvDX0M+amsQWxEvTAqeFf/sE9e3v7QOEvLV/+by9fnzEZ4kmcCwIs8NiePRuPHgHhmvY5l7S3c2k23NkwX3niCZtiUT1vav29t//6mpnTZrc0Xjl17sO7dvSKKKE1k7rvjv/rhqULZzQ2XDv3vM1H3zjQPxCLLGxsuHruPBdxjoiM4usvPftPWztUeVlT7sE7P3vj/MWZTKY6W3XlwsVzgvRjB163UfjciX2fXb0uk6bQGmFl0ON79z57+A0QtWVS3771k7+yavWUVJCrNi2N9XOaG6pYOTbFEEMj0S9855snolAhF82Y+v07PnfzvAUN1Zkl09s+u3LVrv7+A0e7I2BLf8+N89qbcjUVWU5wxsDcuXNnzZrlQkXFYvH48eNbt27dsmWLtba+vt4N/koT6dFHHz106NBVV121fPnyskHhfpg5c+asWbPmz59faVU5ayidTt94441NTU2VFlYQBIsWLdqxY0dnZ+fatWvHJTcePHjwmWeemT179sc+9rHyabiUgqqqqpkzZ+7YsaOnp6e9vb2mpqZsDY2MjNx///3FYvG6666bN29emaHcEVtaWlKp1O7du7u7uxcvXlxpEHlr6MzwRS6ns4OgqtYoxdzZW7jzgbtfPXlcjDm/ufm/X3X11EyNIQK9tSR9UrKwCtCX1149q65KCAaysrVtwZQpEAvYG5YuWDezVYhIubk+c8ms6SAN4mBnXw/crBoQCgZi/cHr24Q5TOkff+jWlVOaQLGb5k9B71x38dWz5qiJ+wv5Fw7tVSS+o1A5VVPWts+7Zt5sVtgwlUc6maFjQgACntq3d2//MEim5cJ/+Midi+trxWhsEKpWhfr1q65dMXsmSE4Ndz+xd591lcA6JvhijJkzZ84tt9xy++2333777XfccceHPvQhY8yTTz754x//eGRkRCswMjLS0dFRV1c3f/58moAgCObPn19dPUmNjYthj1ufmaurq+fNm9ff33/y5Mlxk1yvvvoqEV1zzTXOXyvDsVVTU9P69ev7+vqOHj1aSZRHjx7t7u6eOnXqokWLHAdV+pWqumjRoqampl27dg0MDPhB5J2ydyJURIDG3RT8l2cf33i4E8Jzc1UbPv0ruVpGBATi0nzeCsGxpCNbCOmi5ulFI4EyKwppqquqBhlQvK51LksMCgGEKjOyNUwaMyJxhfwui6fQPRh1DxQRaJbDH7zyygM7X1VNW0qxEqPAXDiZj8BIFbC7t5eFY2MDhSUoGKRGMS1TFZhISRic0WRmTExgGCFk+8mu0IbFoHjz3NUL6usiLjLSbtotH1bV1Y18uH3mi4cOx8X83p7uWISZmJL0p3EMXVVVlc1miWjWrFkrV6781re+tW3btnnz5q1YsaK8Tnd3t7W2qqrqzVY8lOljIty0V29vb1tbW+XyI0eOTJkyZdKAt8Py5csfe+yxo0ePVs7N9/b2xnHsgk2TnkZtbW1dXd2JEydOnjxZOePm4WnoXOlBKclQTGaghYT0Oy899w9bX4XQtGzuqzfcVFdrAk1JCFauSCEsZTWfo3mkpmgUQBwglKR8LAXJqIEqlAIhGCZSKClMTAxrwYZVXWYjADVSVLEw2Tz3h8W7X381NgGpBQkAFrYwICJLxTBJzbSQwCUkJi9vCsGKrLrZfJAkyiWAqDA01mIgQHxeU5tCA7CUMpUy4IjD2TW5LPOQZAXq8iF19PaNL68v+y9VVVW33nrrt7/97c2bN5dpiIjy+Xwcx6lUKp1OvzPvEqIgCMadhqOV/v7+GTNmTJpV5GI9mUzGxaoqN3dnmMvlJv9WVY0xzkoat6GHp6E3Q0QlS0gBJTyxY89dTz4+VESg+nvrL7x20XxFCFJ2kSOXWMOjbARKqOyMLpmCAlUL6zKdnYSjYRJSAgtEGZGrpgBZwIBUmSDqzpDdgYRJ1ZLNG60Ow0tmtgdhGnAmDVkyCmbOG8uNVeH1C5aQICTjPDIhlyfNAqFSxMq56AQVAESsiIwNYo1DPlEYImGwGklWAlkQd9l4mItQNw3IpLCc6E8qSKwtey7jbkJjY2NjY+OxY8cqx3A2m2XmOI6jKHqzTDTpUSppZdyvuVyuWCyeYYdDQ0MAxkWv0uk0M4+MjJzuWNbaOI5VtXJuzsPT0LlCCAS2AJOSKsO+fOzYRzf8YGSYyNhPLFn1O5dfEojhJBUwMUksQ0AmGZtiQe/hDU03ZDUXqDKs0a9cd8u61saYySUrRiwBlCxDKQ4AtRDLsZFQzuaNklFYEqOYWpOzAZli6um9u4pXXEMgZaQUyoigA5F2HD6qlqDjJSaLxWLnyRPNTU2TsokL3EwcpQ0NDcaYgYGBnp6eadOmvYseN1FbW9uuXbsGBwcrp/8rsXPnTlWdNm1apVFTV1eXSqX27t172WWXlefyKzEwMDA4OEhEU6dO9daQD1G/hWCQkiR5PQAdHhy+68c/HhyOgfj6ubO/ccOHUmrI1ZmTuqp1JTGwoYBFgZgU76XCmRDqsuHFs9vDSPMj+ic/+sGxwW4Cigxh5+vZN4YG3hjqNwIDiQzZ8NxiV4AASnR562zNxkLmuZNH//y5xwuRpixiUlWkisEjOzru39MRWAZRPNYd7erquue7373nnnucTVHpDbkfuru7u7u7Z82aNS5+tHr16r6+vtdff72yOKNS3uyd0u5ZuXIlET3++OOFQgETqkC6urqeeeaZ+vr6mTNnVlLJ9OnTGxsbu7q6Ojo6JoquAejo6Ojq6lq0aNG4nEln5VlrJ93Kw9NQRUza1UZZHSD604cfeXTfQdioqbHh3669vCDm5FDUM9jfM9TfPTTQPdjfM9h/anCwt784VIAIQWCJWN7Db86CSb6w7sopVSGY7j944JPf/eeX9h4QybMUuwaj//D00zff/b8/cvc3nzx4kDQMQeYcnn+lkgoRePG0qb86d5maCLH5k+cf/zc/vHdfd19QpK7+wn985rHfefTe7jiOMwDblIzxbRsaGqZPn37w4MENGzb09fWJSOWM2MmTJx944IE4js8//3z3UdmluuSSS5qbmzdu3Lhx40bn3ZTH7aFDh+6///7e3t7Tnvm5DW93rFmzZs2bN2/Xrl0bNmwYGBhw+dPuWF1dXQ899NDQ0NDixYudUVPeNpvNXn755XEcP/HEE3v37nUHLW+4adOmZ599NpvNXn/99ePOp6WlJYqivXv3ehryTtnZiIhhIUz43osv/922V4smRIDuU6eu+e7/Eg5NZC1ny5QFABwHcd4EwX++7ubfX3uhQE2lgti7bQ0ZsPL8xsZv3XL7Lz18T74/eOpw78Xf+ds1uYZcrubFruM8gOEUcZB/9eDBy+bMJsDI2aUgKXE5mQUI47+4+bbtx/56y8muoTj4xuYt39jy0pxc/ZH8YNEKKGM00KJlVaFRn44I2Wz26quu6jl1qqOj48CBAytWrJg9e3ZVVZVLd96yZUsURcuXL589e/a4IHEmk7nxxhvvu+++DRs2dHR0rFy5srm5ua+vb9euXdu2bauurr7gggvekbuXzWavvvrq3t7erVu3Hjp0aOXKldOnT3dVGps3b46iaM6cOVdddZUxpjK0REQLFy788Ic//Pjjj3/nO9+ZP3/+smXLamtru7u7t2zZcujQobq6uhtvvDGXy42ThVy6dOkLL7zwox/9qLOzs62tbc2aNWeud/M09AGFLSt5IOiP42IoUKXIRCaC1iIWa9RFb0dpSCjmXKx2/6EjuiLmLFtDRmGg1cwwAqJcGBKVamZdhJrQmjbH8lFGBZk0CZXUxrgmE4IikMmGJgYHAic9lGMygpii+nTanapRIRhhZpErlyz4O/r4/3rhmaePvFGIzeaeIe0dAgul4hk1tbcuWf2ra9cHohGTSYa8NmbTgCXV+nTVpFH0sjZbTdr89e13/slTGx7s6ChwGnHqcG8hNkFAck3rrFxNzX17tsYWGTaczBi6+DRaprZ85jOfeemll3bt2rVx48af/OQnblgaY5qamhYvXnz++ee72agxJh7zjBkzbrvttk2bNh04cODBBx8UESKqrq5esmTJ6tWrm5ubx0W1U6lUbW3t6SrpM5lMJpOZmG2kqs3Nzb/4i7/48ssv79mz5+mnn7bWupm1tra2RYsWrVu3ziUBTAzxrFmzpra2dsuWLUePHt29ezdKU/UrV65cvXp1Ofm7srqlpqbm6quvfv7557dt23b8+PHly5d7Ghr7xHkTscLCEAjb4GjR/t3zTx4bGTmrByMwaUp9Yu3KC5sbGCRkQMKqu7sGv7lpY10685k1a2bWVaOiKMmqvnTg6D92bDuvofHTF17gPnPjt6O79+6Nz2XSdZ+7cPXUXHUgFuAiU9fgyF8/98KAyf/S8vPXNU2NjQZQKCdSZDEKjM7C8N6jp545sGtr30krdqapvmjWwtXtM+bkarKBRgYAh+J8Jjk0lP/mpo1xofgbF18xpz57lotUHRga3tPZ/cCB3VsGTprYzs7UXrNg8bLZzSbP//vlF09K9OtLVi2d0YKxtVfOYRkaGhoYGOju7h4cHKypqXGZNblcjpnPoMJRLBYHBweHhoaKxWIQBNXV1dXV1Y62Kg9hre3t7U2lUjU1Nao6cYcjIyODg4MNDQ2TRpTdGQ4ODubzeRdadgdyc3Y4YwluPp8fHh4eGhqKoigMw1wul8vlHLlMFDYBYK0dHBwsFothGNbX1/votaeh01CKqBpYUBATQPZslqJCScjNYQvHIhyAIwbBBrGJGMwwIjq2C4VIkTUUIiIIigAbDWIGQ9kqQMlsF4mwCsBqyIIUcYjAKkQRcgwEihINKZwcIheYAhUCsZAKJBUZGBWX46QKgiVjNIaYmAiMwOZhMmfhZtjSzJsRJiEEFtBYgog1iCi00IwI2DiJj8qxVzYlyq0pnHVTGQ86c6BnojEyrkjV8d3pWOMMXTEqn/yy2NDE2f3Tnd6k6UiTXlR55TOs42nI05AbbIl8RsxQCEPN2eIoCgUsqQFUSQkMIWFVuNotBmJSAo3bTxwBoRhhYSisARFYrWtQlKQPcilgDihDoawKVagBQVkJVMqoTpTPoMpESdpQ0vTRwgqMAYwCpBZilAEBuVlBy7BA+qx0C4VluKNrKZZPWk60UsvKOvkInNQ6eMvj8HStOM6qUvZmj3jmTcZdV/nXMzdEepvX7mnoA2AMARGQKgnAQ8+h7bNCS22FHI2VtQoBtoma6mRtKyxgBJZAFDEIGqgCZIncJhGBkQi/gmFLEalKyVe3SFwdKZThSjJKLFRWwFeASjt0fCsUMwFI5ND4nDg6hoYQEoDYElkgpYgJAk1BBMR+1tXD09Db56GYNEhSoUF2VE3j9JsQkJgmrmOrQhhO/B7OC+LJhrljK0kOKwoKhBxZBEBc0hMaZ0KU+3hYwCS9OrhkrDjzSSvZCoCAjLrIOoEISjEjACIghEIQ89nzLZ0KtquGTYhLAXVxbAFUYUh9f1oPT0PvBA+5ojAl2Al+1OT3rrzVaKcMjP7gbuwZDPukekuUeXQYi4K1zF1j+5olNFRisZI6dYXVgwpDSUfPsFykUrm+AhoTn9Nc6bh9liipzE3kWcjD05CHh8fPLrw/7+Hh4WnIw8PD05CHh4eHpyEPDw9PQx4eHh6ehjw8PDwNeXh4eHga8vDw8DTk4eHh4WnIw8PjgwWvvvhOY1xtDJ11QVIiW4kKTdWxNWWVR6HxtVxaavI4up+y5iNG68LG7UxLavZ0mkuhiWdI78zNmayXko5bi0ebNpXOp+JCJlxT6VpKCiRjDlb6tbTV6F3RsizB2G9o4pelYy+eJvvGPd4sfE3ZT4+naJQsJtioOnZYQceqjkzy9AMgO6HIdLyWh5Q+pdEn4FwekzMx7bk+amel7DPepcpntmIld5d47PUiJjNuUzOWWghIJH2pcr9jboZOOL6v4PU09DNqDJ3DQJv09a7jltgJw5PLL2cpjzQaHZ1aHntjTAmZcFqsFWOaJhhM797Yk8modPRwrlURybgT0BKrllezFQIClZZRWWoMQIXaWCIoLq7v5MSvSd8cm3pjyDtlPyWumYy7ndqojlMXTRZDVUUVqgqSZKkKVKxYIquqUKsiqrFYFYioVWtF3J+iBFYlttaKxGJjsZFoLDa2tmitVYljW4DEVoo2jq11Hw0BsVhrbSTWilqRvLAVa0ViFSsiImJVNDm0+1dVRSU5YUAAS0ZEKq9dR+20s7/HSrKMNMo0IBBSOkoczAwiw0Sqhg0RDLmWrwiYDXGQNGbmkGzAJjAUsDGGDZsss2FOGWPYhMzGmDSFgeHQmMAEAXPAnAGCwATMgTGGOGQO2RpmwxySYWYmMoaYmUEBGyZ3eDAxEbnms4HCOLJjIiT/USLDSAplIippu5xOu9bD09A7ZENOpkNa5p3RVzCg5UAPue7PpeAHlfWIiEBOLJHBEAmE86TCsMKWYAmWVNhCBCwqsZIliLCKWmWBiloBSaQck1o2sWqssExshQUiZCypWAgCAQmRECmRQJSKySmRU7IldUZKQhUCJRCJkzpDSVxJK+I6ZzOoica4OkQVQSwu05K6/pMQJhLAKAkRiEInZ0ukIHeCoRqjzGIYxhAZMCkTWMkQmMgQDCc63UoqlJhYpElDOSKCZRgiEBGxZQYziAIlUtcFO1GJc3+5TJeUqDdxIv1UETGi8gIvAeedsp++RzbeSC8HRrXC79CKyPPosC6vUXbLqDz4ddS3UgURgaBQqJY4kVUqjkkVcomkZQHZiuOV1Bqdc5eIqCWyyiCFlt7rejbptnO+O3QW65IqnSSqpPVRF0ypLBKnLoQsYKiWeEcBiFOSQ3KPJhWfm3g6WrqnwNjT0TGvmeTmuBs5uufR/XkS8jTk4eHxMwafN+Th4eFpyMPDw9OQh4eHh6chDw8PT0MeHh4enoY8PDw8DXl4eHh4GvLw8Pjg4f8Aj4ylH9fcuL0AAAAASUVORK5CYII=;imageBorder=default;dashed=1;" vertex="1" parent="1">
          <mxGeometry x="363.26" y="50" width="143.49" height="100" as="geometry" />
        </mxCell>
      </root>
    </mxGraphModel>
  </diagram>
</mxfile>
